<?xml version="1.0" encoding="UTF-8" standalone="no"?>
<!DOCTYPE svg PUBLIC "-//W3C//DTD SVG 1.1//EN" "http://www.w3.org/Graphics/SVG/1.1/DTD/svg11.dtd">
<svg xmlns="http://www.w3.org/2000/svg" xmlns:xlink="http://www.w3.org/1999/xlink" version="1.1" width="612pt" height="792pt" viewBox="0 0 612 792">
<g enable-background="new">
<clipPath id="cp0">
<path transform="matrix(1,0,0,-1,0,792)" d="M 0 0 L 612 0 L 612 792 L 0 792 Z "/>
</clipPath>
<g clip-path="url(#cp0)">
<path transform="matrix(1,0,0,-1,0,792)" d="M 0 792 L 612 792 L 612 0 L 0 0 Z " fill="#ffffff"/>
</g>
<clipPath id="cp1">
<path transform="matrix(1,0,0,-1,0,792)" d="M 49.42383 33.66894 L 568.16177 33.66894 L 568.16177 767.7761 L 49.42383 767.7761 Z "/>
</clipPath>
<g clip-path="url(#cp1)">
<path transform="matrix(1,0,0,-1,0,792)" d="M 220.2461 121.7144 L 555.5283 121.7144 L 555.5283 109.7144 L 220.2461 109.7144 Z " fill="#ffffff"/>
<path transform="matrix(1,0,0,-1,0,792)" d="M 64.90909 109.7144 L 516.6034 109.7144 L 516.6034 98.71435 L 64.90909 98.71435 Z " fill="#ffffff"/>
<path transform="matrix(1,0,0,-1,0,792)" d="M 64.90909 98.71435 L 550.3046 98.71435 L 550.3046 87.71435 L 64.90909 87.71435 Z " fill="#ffffff"/>
<path transform="matrix(1,0,0,-1,0,792)" d="M 64.90909 87.71435 L 379.3036 87.71435 L 379.3036 76.71435 L 64.90909 76.71435 Z " fill="#ffffff"/>
<g id="Layer-1" data-name="P">
<g id="Layer-2" data-name="P">
<text fill="#404040" xml:space="preserve" transform="matrix(1 0 -0 1 73.63037 42.862489)" font-size="11" font-family="TimesNewRomanPS" font-style="italic"><tspan y="0" x="0 5.5 11 16.5 21.381802 26.881802 29.937603 35.437604 45.556505 51.056505 59.000707 64.5007 67.5565 70.612308 73.362308 78.24411 83.74411">nbavafa@gmail.com</tspan></text>
</g>
<g id="Layer-2" data-name="P">
<text fill="#404040" xml:space="preserve" transform="matrix(1 0 -0 1 73.63037 42.862489)" font-size="14" font-family="TimesNewRomanPS" font-weight="bold"><tspan y="0" x="91.68994 95.18994 107.99994 111.49994 114.99994 118.49994 121.99994 143.99954 147.49954 150.99954 154.49954">           </tspan></text>
</g>
<g id="Layer-2" data-name="P">
<text fill="#404040" xml:space="preserve" transform="matrix(1 0 -0 1 73.63037 42.862489)" font-size="16" font-family="Baskerville"><tspan y="0" x="158 170 175.664 187.1632 199.9984 213.1632 222.8272 233.6624 242.3264 246.3264 252.936 256.936 260.936 270.32643 279.24003 288.98243 299.81764 307.31044">NICHOLAS F. BAVAFA</tspan></text>
</g>
<g id="Layer-2" data-name="P">
<text fill="#404040" xml:space="preserve" transform="matrix(1 0 -0 1 73.63037 42.862489)" font-size="14" font-family="TimesNewRomanPS" font-weight="bold"><tspan y="0" x="318.1484 321.6484 324.0004 360">    </tspan></text>
</g>
<g id="Layer-2" data-name="P">
<text fill="#404040" xml:space="preserve" transform="matrix(1 0 -0 1 73.63037 42.862489)" font-size="11" font-family="TimesNewRomanPS" font-style="italic"><tspan y="0" x="396 399.663 405.163 410.663 416.163 419.826 422.576 428.076 433.576 439.076 442.73899 448.23899 453.73899 459.23899">(925) 642-9199</tspan></text>
</g>
<g id="Layer-2" data-name="P">
<text fill="#404040" xml:space="preserve" transform="matrix(1 0 -0 1 73.63037 42.862489)" font-size="14" font-family="TimesNewRomanPS" font-weight="bold"><tspan y="0" x="464.7393"> </tspan></text>
</g>
</g>
<g id="Layer-1" data-name="P">
<text fill="#404040" xml:space="preserve" transform="matrix(1 0 -0 1 57.79321 60.030519)" font-size="11" font-family="TimesNewRomanPS" font-weight="bold"><tspan y="0" x="0 11 22 33 44 55 66 77 88 99 110 121 132 143 154 165 176 187 198 209 211.75">&#x2014;&#x2014;&#x2014;&#x2014;&#x2014;&#x2014;&#x2014;&#x2014;&#x2014;&#x2014;&#x2014;&#x2014;&#x2014;&#x2014;&#x2014;&#x2014;&#x2014;&#x2014;&#x2014;  </tspan></text>
<text xml:space="preserve" transform="matrix(1 0 -0 1 57.79321 60.030519)" font-size="11" font-family="TimesNewRomanPS" font-weight="bold"><tspan y="0" x="214.5 221.837 229.7812 237.7254 245.6696 252.79651 260.1335 264.4147 272.97053">EDUCATION</tspan></text>
<text fill="#404040" xml:space="preserve" transform="matrix(1 0 -0 1 57.79321 60.030519)" font-size="13" font-family="TimesNewRomanPS" font-weight="bold"><tspan y="0" x="280.9136 284.1636">  </tspan></text>
<text fill="#404040" xml:space="preserve" transform="matrix(1 0 -0 1 57.79321 60.030519)" font-size="11" font-family="TimesNewRomanPS" font-weight="bold"><tspan y="0" x="287.4136 298.4136 309.4136 320.4136 331.4136 342.4136 353.4136 364.4136 375.4136 386.4136 397.4136 408.4136 419.4136 430.4136 441.4136 452.4136 463.4136 474.4136 485.4136 496.4136">&#x2014;&#x2014;&#x2014;&#x2014;&#x2014;&#x2014;&#x2014;&#x2014;&#x2014;&#x2014;&#x2014;&#x2014;&#x2014;&#x2014;&#x2014;&#x2014;&#x2014;&#x2014;&#x2014; </tspan></text>
</g>
<g id="Layer-1" data-name="P">
<text xml:space="preserve" transform="matrix(1 0 -0 1 54 75.63757)" font-size="11" font-family="TimesNewRomanPS" font-weight="bold"><tspan y="0" x="0 7.944201 14.062402 17.118203 22.618203 27.500004 32.3818 36.663003 39.7188 43.381799 48.881799 51.631799 57.131799 60.7948 63.5448 71.489 76.989 80.0448 83.1006 86.7636 92.2636 97.14541 103.2636 106.319408 111.819408 114.569408 117.319408 123.4376 128.93759 135.05579 137.80579 145.74999 148.80579 153.68759 159.18759 164.68759 179.99959 182.74959 185.49959 188.24959 190.99959 193.74959 196.49959 199.24959 201.99959 204.74959 207.49959 215.99929 251.999 287.9987 290.7487 293.4987 296.2487 298.9987 301.7487 304.4987 307.2487 309.9987 312.7487 315.4987 318.2487 320.9987 323.99839 359.99809 362.74809 365.49809 368.24809 370.99809 373.74809 376.49809 379.24809">University of California, San Diego                                    </tspan></text>
<text xml:space="preserve" transform="matrix(1 0 -0 1 54 75.63757)" font-size="10" font-family="TimesNewRomanPS" font-style="italic"><tspan y="0" x="382 387 391.438 396.438 399.21598 403.65397 410.87599 415.87599 420.31398 424.206 426.706 431.706 436.706 441.706 446.706 449.206 458.09803 460.59803 465.036 470.036 475.036 479.474 481.974 486.974 491.974 496.974">September 2016 &#x2014; June 2020</tspan></text>
<text xml:space="preserve" transform="matrix(1 0 -0 1 54 75.63757)" font-size="11" font-family="TimesNewRomanPS" font-style="italic"><tspan y="0" x="501.9756"> </tspan></text>
</g>
<g id="Layer-1" data-name="P">
<text xml:space="preserve" transform="matrix(1 0 -0 1 54 89.94409)" font-size="10" font-family="TimesNewRomanPS" font-weight="bold"><tspan y="0" x="0 6.6700007 11.67 16.108 21.67 26.108 28.886 33.886 38.144006 40.644006 45.644006 48.974008 51.474008 57.036008 61.474008 64.25201 68.69001 74.25201 78.69001 83.12801 85.62801 88.40601 93.96801 96.46801 103.13801 105.91601 110.91601 113.69401 119.256008 122.586009 127.586009 132.024 140.354 145.354 148.684 151.462 155.90001 159.792 162.292 165.62201 168.12201 175.34401 180.34401 188.67401 194.23601 199.798 203.128 207.56601 211.824 214.324 219.886 224.324 227.102 231.54001 237.102 241.54001">Bachelor of Science in Bioinformatics - Computer Science</tspan></text>
<text xml:space="preserve" transform="matrix(1 0 -0 1 54 89.94409)" font-size="11" font-family="TimesNewRomanPS" font-weight="bold"><tspan y="0" x="245.9814 248.7314 251.4814 254.2314 256.98139 259.73139 288.00028 290.75028 293.50028 296.25028 299.00028 301.75028 304.50028 307.25028 310.00028 312.75028 315.50028 318.25028 321.00028 323.99998 359.99967">                     </tspan></text>
<text xml:space="preserve" transform="matrix(1 0 -0 1 54 89.94409)" font-size="11" font-family="TimesNewRomanPS" font-weight="bold" font-style="italic"><tspan y="0" x="396"> </tspan></text>
<text xml:space="preserve" transform="matrix(1 0 -0 1 54 89.94409)" font-size="10" font-family="TimesNewRomanPS" font-style="italic"><tspan y="0" x="398.75 405.42 408.198 410.97599 413.75398 417.646 422.08399 427.08399 429.12498 433.017 435.336 440.89299 447.563 452.563 456.084 461.084 463.584 469.692 474.12998 478.56797 481.34596 486.34596 489.12394 493.56193 498.56193">Citizen&#x2019;s Award Recipient</tspan></text>
<text xml:space="preserve" transform="matrix(1 0 -0 1 54 89.94409)" font-size="10" font-family="TimesNewRomanPSMT"><tspan y="0" x="501.3428"> </tspan></text>
<text xml:space="preserve" transform="matrix(1 0 -0 1 54 89.94409)" font-size="13" font-family="TimesNewRomanPS" font-weight="bold"><tspan y="0" x="503.8428"> </tspan></text>
</g>
<g id="Layer-1" data-name="P">
<g id="Layer-2" data-name="P">
<g id="Layer-3" data-name="P">
<g id="Layer-4" data-name="P">
<text xml:space="preserve" transform="matrix(1 0 -0 1 54 105.034427)" font-size="12" font-family="TimesNewRomanPSMT"><tspan y="0" x="0">&#x2022;</tspan></text>
</g>
<g id="Layer-4" data-name="P">
<text xml:space="preserve" transform="matrix(1 0 -0 1 66.24 103.50952)" font-size="10" font-family="TimesNewRomanPS" font-style="italic"><tspan y="0" x="0 5 9.438001 12.216001 16.654002 21.092001 23.87 28.308 33.308 35.808 42.478 47.478 52.478 56.37 60.261999 64.7 71.369998 76.369998 80.26199">Selected Coursework</tspan></text>
<text xml:space="preserve" transform="matrix(1 0 -0 1 66.24 103.50952)" font-size="10" font-family="TimesNewRomanPSMT"><tspan y="0" x="84.70215">:</tspan></text>
<text xml:space="preserve" transform="matrix(1 0 -0 1 66.24 103.50952)" font-size="10" font-family="TimesNewRomanPS" font-style="italic"><tspan y="0" x="87.48047"> </tspan></text>
<text xml:space="preserve" transform="matrix(1 0 -0 1 66.24 103.50952)" font-size="10" font-family="TimesNewRomanPSMT"><tspan y="0" x="89.98047 95.542469 100.542469 103.87247 106.65047 113.87247 118.31047 121.64047 126.078479 128.57848 134.14048 137.47048 142.47048 147.47048 150.80048 155.23848 163.01648 165.79448 170.79448 175.79448 178.29448 180.79448 188.01648 192.45449 195.23249 199.67049 202.17049 207.73249 210.51049 213.84049 218.84049 223.27849 226.05649 231.05649 234.38649 238.8245 242.71649 245.21649 248.5465 251.0465 258.8245 261.3245 264.65449 267.98448 270.48448 272.98448 280.20649 285.20649 287.98448 292.42247 296.86045 299.63844 304.07643 309.07643 312.4064 319.62843 322.9584 325.7364 330.17439 335.17439 337.95237 342.39036 347.39036 349.89036 355.45237 358.78236 363.78236 368.78236 372.11235 376.55033 384.3283 392.1063 394.88429 399.88429 404.88429 407.38429 409.88429 415.4463 420.4463 423.77629 426.55427 433.77629 438.21427 441.54426 445.98225 448.30125 453.7112 458.7112 463.7112 466.4892 470.38124 472.88124 477.3192 482.3192 487.3192">Software Programing, Data Structures I &#x0026; II, Objected-Oriented Programming, Software Tools and </tspan></text>
<text xml:space="preserve" transform="matrix(1 0 -0 1 66.24 116.62451)" font-size="10" font-family="TimesNewRomanPSMT"><tspan y="0" x="0 5.4100005 9.848001 14.286001 19.286002 24.286002 27.064002 32.064004 37.064004 41.502008 45.394006 47.894006 49.842004 57.064004 59.842004 64.842 69.842 73.172008 75.950008 78.728008 83.728008 91.506008 95.398 97.898 105.676 108.176 113.738 118.738 122.63 125.408 129.846 137.624 139.57199 146.79399 151.79399 156.232 159.01 164.01 167.902 170.68 174.57199 177.07199 179.57199 188.46399 193.46399 196.24199 200.68 205.118 210.118 212.896 217.334 220.664 223.164 228.726 233.164 238.164 243.164 247.602 252.602 257.03999 261.47798 263.42597 270.64799 275.64799 280.08598 282.86396 287.86396 291.75599 294.53398 298.426 300.926 303.426 310.096 312.874 317.874 320.65199 325.65199 330.65199 333.42997 337.86796 342.30595 345.08393 347.58393 354.80595 359.24394 362.0219 366.4599 368.4079 375.6299 380.6299 385.0679 387.8459 392.8459 396.7379 399.5159 403.40794 405.90794 408.40794 415.07795 420.07795 427.85594 432.85594 437.85594 440.6339 445.0719 447.84989 450.62788 455.62788 460.62788 465.06587 467.84385">Techniques, Algorithms &#x0026; System Analysis, Molecular Sequence Analysis, Biological Data Analysis, Computational </tspan></text>
<text xml:space="preserve" transform="matrix(1 0 -0 1 66.24 129.73963)" font-size="10" font-family="TimesNewRomanPSMT"><tspan y="0" x="0 6.1080005 8.886001 13.886001 18.886002 23.886002 26.664002 30.556002 33.334005 36.112005 40.550004 44.442 46.942 48.89 56.112 61.112 66.112 70.55 75.55 79.98801 84.42601 89.42601 91.92601 98.59601 101.37401 106.37401 109.15201 114.15201 117.48201 122.48201 125.81201 133.59001 138.02802 140.80602 143.58402 148.02202 151.91402 154.41402 160.52202 164.96002 169.96002 174.96002 178.29003 182.72803 185.50603 190.50603 193.83603 198.83603">Linguistics, Advanced Bioinformatics Laboratory </tspan></text>
</g>
</g>
</g>
</g>
<g id="Layer-1" data-name="P">
<text fill="#404040" xml:space="preserve" transform="matrix(1 0 -0 1 55.43848 143.59583)" font-size="11" font-family="TimesNewRomanPS" font-weight="bold"><tspan y="0" x="0 11 22 33 44 55 66 77 88 99 110 121 132 143 154 165 176 187 198">&#x2014;&#x2014;&#x2014;&#x2014;&#x2014;&#x2014;&#x2014;&#x2014;&#x2014;&#x2014;&#x2014;&#x2014;&#x2014;&#x2014;&#x2014;&#x2014;&#x2014;&#x2014;&#x2014;</tspan></text>
<text xml:space="preserve" transform="matrix(1 0 -0 1 55.43848 143.59583)" font-size="11" font-family="TimesNewRomanPS" font-weight="bold"><tspan y="0" x="209 211.75 214.5 221.837 229.7812 236.5 243.837 251.7812 256.0624 263.3994 271.3436 279.28779 286.6248 289.3748">  EXPERIENCE  </tspan></text>
<text fill="#404040" xml:space="preserve" transform="matrix(1 0 -0 1 55.43848 143.59583)" font-size="11" font-family="TimesNewRomanPS" font-weight="bold"><tspan y="0" x="292.123 303.123 314.123 325.123 336.123 347.123 358.123 369.123 380.123 391.123 402.123 413.123 424.123 435.123 446.123 457.123 468.123 479.123 490.123">&#x2014;&#x2014;&#x2014;&#x2014;&#x2014;&#x2014;&#x2014;&#x2014;&#x2014;&#x2014;&#x2014;&#x2014;&#x2014;&#x2014;&#x2014;&#x2014;&#x2014;&#x2014;&#x2014;</tspan></text>
<text xml:space="preserve" transform="matrix(1 0 -0 1 55.43848 143.59583)" font-size="11" font-family="TimesNewRomanPS" font-weight="bold"><tspan y="0" x="501.123"> </tspan></text>
</g>
<g id="Layer-1" data-name="P">
<text fill="#404040" xml:space="preserve" transform="matrix(1 0 -0 1 54 167.59583)" font-size="11" font-family="TimesNewRomanPS" font-weight="bold"><tspan y="0" x="0 4.2812006 10.399402 15.281201 20.7812 29.944203 33 39.118204 44.618204 47.368204 53.486406 58.986406 62.649408 66.31241 74.25661 79.75661 84.44041 89.32221 92.07221 100.01641 104.89822 110.39822 115.28002 118.33582 123.83582 129.95403 139.11702 143.99883 150.11702 153.78002 156.53002 163.86702 169.98522 175.48522 178.54102 184.65921 189.54102 194.42282 199.10663 201.85663 212.85663">Incoming Software Development Engineer &#x2014; </tspan></text>
<text fill="#404040" xml:space="preserve" transform="matrix(1 0 -0 1 54 167.59583)" font-size="11" font-family="TimesNewRomanPS" font-style="italic"><tspan y="0" x="215.6064 222.3252 230.2694 235.7694 240.0506 245.5506 251.0506 253.8006 258.6824 264.1824 272.1266 287.99958 290.74958">Amazon.com   </tspan></text>
<text fill="#404040" xml:space="preserve" transform="matrix(1 0 -0 1 54 167.59583)" font-size="11" font-family="TimesNewRomanPSMT"><tspan y="0" x="293.5 296.25 323.9997 359.9994 362.7494 365.4994 368.2494 370.9994 373.7494 376.4994 379.2494 381.9994 384.7494 387.4994 395.99909 431.99879 434.74879">                 </tspan></text>
<text fill="#404040" xml:space="preserve" transform="matrix(1 0 -0 1 54 167.59583)" font-size="10" font-family="TimesNewRomanPS" font-style="italic"><tspan y="0" x="437.5 442.5 446.938 451.938 454.71598 459.15397 466.37599 471.37599 475.81398 479.706 482.206 487.206 492.206 497.206">September 2020</tspan></text>
<text fill="#404040" xml:space="preserve" transform="matrix(1 0 -0 1 54 167.59583)" font-size="11" font-family="TimesNewRomanPS" font-weight="bold"><tspan y="0" x="502.207"> </tspan></text>
</g>
<g id="Layer-1" data-name="P">
<text fill="#404040" xml:space="preserve" transform="matrix(1 0 -0 1 54 191.59583)" font-size="11" font-family="TimesNewRomanPS" font-weight="bold"><tspan y="0" x="0 6.118201 11.6182 15.2812 18.9442 26.888401 32.3884 37.0722 41.954 44.704 52.6482 57.53 63.03 67.911808 70.967609 76.467609 82.5858 91.7488 96.63061 102.7488 106.411808 109.161808 113.443 119.561199 123.2242 128.106 132.98781 139.106 141.856 152.856">Software Development Intern &#x2014; </tspan></text>
<text fill="#404040" xml:space="preserve" transform="matrix(1 0 -0 1 54 191.59583)" font-size="11" font-family="TimesNewRomanPS" font-style="italic"><tspan y="0" x="155.606 162.3248 170.269 175.769 180.0502 185.5502 191.0502 193.8002 198.682 204.182 212.1262 216.00041 218.75041">Amazon.com   </tspan></text>
<text fill="#404040" xml:space="preserve" transform="matrix(1 0 -0 1 54 191.59583)" font-size="11" font-family="TimesNewRomanPSMT"><tspan y="0" x="221.5 224.25 251.9997 287.9994 323.99909 359.99879 362.74879 365.49879 368.24879 370.99879 373.74879 376.49879 379.24879 381.99879 384.74879">               </tspan></text>
<text fill="#404040" xml:space="preserve" transform="matrix(1 0 -0 1 54 191.59583)" font-size="10" font-family="TimesNewRomanPS" font-style="italic"><tspan y="0" x="387.5 391.938 396.938 401.938 406.37599 408.87599 413.87599 418.87599 423.87599 428.87599 431.37599 434.70597 437.20597 442.20597 446.64396 451.64396 454.42195 458.85993 466.08195 471.08195 475.51994 479.41197 481.91197 486.91197 491.91197 496.91197">June 2019 - September 2019</tspan></text>
<text fill="#404040" xml:space="preserve" transform="matrix(1 0 -0 1 54 191.59583)" font-size="11" font-family="TimesNewRomanPS" font-weight="bold"><tspan y="0" x="501.9141"> </tspan></text>
</g>
<g id="Layer-1" data-name="P">
<g id="Layer-2" data-name="P">
<g id="Layer-3" data-name="P">
<text fill="#404040" xml:space="preserve" transform="matrix(1 0 -0 1 54 204.37952)" font-size="12" font-family="TimesNewRomanPSMT"><tspan y="0" x="0">&#x2022;</tspan></text>
</g>
<g id="Layer-3" data-name="P">
<text fill="#404040" xml:space="preserve" transform="matrix(1 0 -0 1 64.90909 202.85462)" font-size="10" font-family="TimesNewRomanPSMT"><tspan y="0" x="0 5.5620005 10.000001 13.330001 16.108 18.608 23.608 26.938 29.438 32.216 37.216 39.994 44.432 47.762 52.762 57.200006 59.978006 61.926004 68.347 77.785 83.347 85.847 88.625 93.063 97.50101 105.27901 107.77901 111.10901 116.10901 119.43901 121.93901 124.71701 127.49501 131.93302 136.93302 141.37102 144.14902 146.92702 151.92702 156.92702 159.42702 161.92702 164.70502 168.59702 172.48902 177.48902 181.92702 184.42702 192.20502 196.64302 201.64302 206.08103 211.08103 215.51903 223.29703 227.73503 232.73503 235.51303 238.01303 240.51303 244.95104 249.95104 254.95104 257.45106 261.88905 266.88905 269.66703 272.445 276.883 279.383 284.383 287.71299 292.71299 297.15098 301.58897 305.481 309.37303 311.87303 316.87303 319.651 324.089 329.089 334.089 336.86698 341.86698 346.86698 349.36698 352.14497 357.14497 362.14497 364.92295 368.81498 371.31498 374.64497 379.64497 382.97496 385.47496 389.91294 392.69093 395.4689 397.4169 404.63893 412.4169 416.8549 421.29289 426.29289 431.29289 433.79289 438.23088 446.00886 451.00886 453.78684 458.78684 463.78684 468.22483 472.6628 476.55485">Part of internal AWS team for ticketing, issue management, and agile process planning tools for all Amazon employees </tspan></text>
</g>
</g>
<g id="Layer-2" data-name="P">
<g id="Layer-3" data-name="P">
<text fill="#404040" xml:space="preserve" transform="matrix(1 0 -0 1 54 215.37952)" font-size="12" font-family="TimesNewRomanPSMT"><tspan y="0" x="0">&#x2022;</tspan></text>
</g>
<g id="Layer-3" data-name="P">
<text fill="#404040" xml:space="preserve" transform="matrix(1 0 -0 1 64.90909 213.85462)" font-size="10" font-family="TimesNewRomanPSMT"><tspan y="0" x="0 7.2220008 11.660001 15.552001 18.33 23.33 28.33 32.768 37.768 40.268 44.706 49.706 54.706 57.206 62.206 66.644008 71.644008 76.08201 78.86001 83.86001 88.86001 93.29801 98.29801 100.79801 105.79801 110.236019 117.458019 119.958019 124.958019 129.39601 132.17401 136.61202 139.11202 143.00402 145.78202 149.11202 154.11202 158.55002 161.32802 166.32802 169.65802 174.09603 177.98802 180.48802 182.98802 185.76602 190.76602 195.76602 198.54402 202.98203 205.48203 209.92003 214.92003 219.92003 222.42003 226.85803 229.63603 234.63603 239.63603 242.96604 245.74404 248.52204 253.52204 261.30003 263.80003 267.13 272.13 275.46 277.96 280.73799 284.63 288.52204 293.52204 297.96003 300.46003 304.898 309.898 314.898 317.398 320.176 322.95399 327.39198 332.39198 336.82997 339.60795 342.10795 345.99998 350.43797 355.43797 359.87596 363.20594 365.98393 368.7619 373.7619 376.2619 381.2619 384.5919 389.5919 397.36988 402.36988 405.14787 407.92585 412.92585 417.92585 420.42585 423.20384 425.9818 433.7598 438.19779 441.52778 445.4198">Designed and developed new data structures, logic and algorithm for issue and ticket severity promotion timers </tspan></text>
</g>
</g>
<g id="Layer-2" data-name="P">
<g id="Layer-3" data-name="P">
<text fill="#404040" xml:space="preserve" transform="matrix(1 0 -0 1 54 226.37952)" font-size="12" font-family="TimesNewRomanPSMT"><tspan y="0" x="0">&#x2022;</tspan></text>
</g>
<g id="Layer-3" data-name="P">
<text fill="#404040" xml:space="preserve" transform="matrix(1 0 -0 1 64.90909 224.85462)" font-size="10" font-family="TimesNewRomanPSMT"><tspan y="0" x="0 5.5620005 10.562 13.340001 16.118 18.618 22.51 25.288 29.726 34.164 39.164 41.664 45.556 50.556 53.886 56.664 63.886 68.324008 71.65401 76.09201 78.59201 83.59201 88.030017 93.030017 97.46802 100.24602 105.24602 110.24602 118.02402 122.46202 127.46202 130.24002 132.74002 137.74002 141.07003 143.57003 150.79203 155.79203 159.12203 164.12203 167.45203 170.23003 175.23003 182.45203 186.34403 188.84403 191.62203 196.62203 199.12203 203.01403 208.01403 213.01403 220.23603 222.73603 227.17403 232.17403 236.06603 238.84403 243.84403 251.62203 256.06 259.38999 263.282 265.782 270.782 275.22 278.55 281.32798 284.10597 289.10597 293.54396 298.54396 301.32194 303.82194 306.5999 311.5999 314.9299 319.9299 323.2599 331.03788 335.47587 338.25386 341.03184 346.03184 351.03184 353.53184 356.86183 361.2998 366.2998 370.7378 374.06779 379.06779 381.84577 386.84577 391.84577 394.34577 398.78376 403.22175 407.65974 412.65974 415.15974 417.9377 421.2677 426.2677 431.2677 436.2677 439.0457 443.48368 445.98368 448.76167 451.53965 455.97764 460.97764 465.41563 468.1936">Full stack software development of workflows to show customers pertinent information regarding each trouble ticket </tspan></text>
</g>
</g>
<g id="Layer-2" data-name="P">
<g id="Layer-3" data-name="P">
<text fill="#404040" xml:space="preserve" transform="matrix(1 0 -0 1 54 237.37952)" font-size="12" font-family="TimesNewRomanPSMT"><tspan y="0" x="0">&#x2022;</tspan></text>
</g>
<g id="Layer-3" data-name="P">
<text fill="#404040" xml:space="preserve" transform="matrix(1 0 -0 1 64.90909 235.85462)" font-size="10" font-family="TimesNewRomanPSMT"><tspan y="0" x="0 6.1080005 11.108 16.108 18.608 21.386 26.386 28.886 33.324 38.324 43.324 45.824 50.824 58.046 63.046 67.484 70.814 74.706 79.706 82.484 87.484 90.262 92.762 98.324 101.654 106.654 114.432 116.932 119.71 124.71 129.70999 134.148 138.04 140.818 143.596 148.596 153.034 155.812 158.59 163.59 168.59 171.09 175.528 180.528 185.528 188.028 195.25 198.58 201.358 204.136 206.914 211.914 216.914 219.414 224.414 228.852 232.744 235.522 240.522 245.522 248.022 253.022 256.352 261.352 266.352 271.352 275.24403 279.682 282.46 286.35203 288.85203 291.35203 294.13 299.13 301.63 309.408 313.84599 318.84599 323.28398 328.28398 331.06196 336.06196 341.06196 343.56196 347.99995 352.99995 357.99995 362.43794 364.93794 369.93794 374.37593 379.37593 382.1539 387.1539 392.1539 399.9319 404.36988 409.36988 412.14787 414.64787 417.42585 422.42585 425.75584 430.75584 435.75584 440.75584 445.75584 448.25584 453.25584 456.0338 461.0338 465.4718 468.2498 471.02778 476.02778 480.46577">End to end ownership: From investigation and writing design proposals, to managing code deployment through pipelines</tspan></text>
<text fill="#404040" xml:space="preserve" transform="matrix(1 0 -0 1 64.90909 235.85462)" font-size="11" font-family="TimesNewRomanPSMT"><tspan y="0" x="484.3701"> </tspan></text>
</g>
</g>
</g>
<g id="Layer-1" data-name="P">
<text fill="#404040" xml:space="preserve" transform="matrix(1 0 -0 1 54 259.59584)" font-size="11" font-family="TimesNewRomanPS" font-weight="bold"><tspan y="0" x="0 7.337001 10.392801 15.892801 18.948603 25.066803 28.729804 34.229806 39.111604 48.274606 53.774606 57.437608 60.493406 65.375209 69.6564 72.4064 78.5246 84.0246 87.6876 91.3506 99.2948 104.7948 109.4786 114.360408 117.110408 121.3916 127.509799 131.17279 136.0546 140.9364 147.0546 149.8046 160.8046">Bioinformatics Software Intern &#x2014; </tspan></text>
<text fill="#404040" xml:space="preserve" transform="matrix(1 0 -0 1 54 259.59584)" font-size="11" font-family="TimesNewRomanPS" font-style="italic"><tspan y="0" x="163.5552 171.4994 178.83641 184.33641">UCSD</tspan></text>
<text fill="#404040" xml:space="preserve" transform="matrix(1 0 -0 1 54 259.59584)" font-size="11" font-family="TimesNewRomanPS" font-weight="bold"><tspan y="0" x="192.2798"> </tspan></text>
<text fill="#404040" xml:space="preserve" transform="matrix(1 0 -0 1 54 259.59584)" font-size="11" font-family="TimesNewRomanPS" font-style="italic"><tspan y="0" x="195.0298 204.1928 209.6928 213.974 217.8471 222.72891 225.78472 228.84052 231.59052 237.70871 243.20871 248.70871 251.45871 254.20871 256.9587 259.7087 262.4587 265.2087 267.9587 270.7087 273.4587 276.2087 278.9587 281.7087 284.4587 287.2087 289.9587 292.7087 295.4587 298.2087 300.9587 303.7087 306.4587 324.0004 326.7504 329.5004 332.2504 335.0004 337.7504 360.0001 362.7501">Murrell Lab                              </tspan></text>
<text fill="#404040" xml:space="preserve" transform="matrix(1 0 -0 1 54 259.59584)" font-size="10" font-family="TimesNewRomanPS" font-style="italic"><tspan y="0" x="396 402.10798 407.10798 411 413.77799 416.55598 419.05598 424.05598 429.05598 434.05598 439.05598 441.55598 444.88597 447.38597 451.82395 456.82395 461.82395 466.82395 471.82395 475.71598 480.15397 482.65397 487.65397 492.65397 497.65397">April 2018 - January 2019</tspan></text>
<text fill="#404040" xml:space="preserve" transform="matrix(1 0 -0 1 54 259.59584)" font-size="11" font-family="TimesNewRomanPSMT"><tspan y="0" x="502.6553"> </tspan></text>
</g>
<g id="Layer-1" data-name="P">
<g id="Layer-2" data-name="P">
<g id="Layer-3" data-name="P">
<text fill="#404040" xml:space="preserve" transform="matrix(1 0 -0 1 54 272.37953)" font-size="12" font-family="TimesNewRomanPS" font-weight="bold"><tspan y="0" x="0">&#x2022;</tspan></text>
</g>
<g id="Layer-3" data-name="P">
<text fill="#404040" xml:space="preserve" transform="matrix(1 0 -0 1 68.18182 270.8546)" font-size="10" font-family="TimesNewRomanPSMT"><tspan y="0" x="0 5.5620005 10.000001 13.330001 16.108 18.608 23.608 26.938 29.438 32.216 36.654 41.092004 48.870004 51.370004 54.148004 59.148004 63.586008 66.364009 68.864009 73.864009 78.30201 83.30201 87.74001 90.51801 95.51801 100.51801 104.95602 109.95602 112.45602 117.45602 121.89402 126.89402 131.33202 134.11002 136.88802 141.32602 143.82602 147.71802 152.15602 157.15602 162.15602 166.59403 171.59403 176.03203 178.81003 183.81003 188.81003 191.31003 195.20203 200.20203 203.53203 206.31003 213.53203 217.97003 221.30004 225.73804 228.23804 231.56804 235.46004 240.46004 243.23804 246.01604 250.45404 253.78404 256.28407 259.61405 264.61405 267.94404 270.44404 274.88203 282.66 287.66 290.438 293.21598 297.65397 302.65397 307.65397 310.15397 315.15397 319.59196 324.59196 329.59196 332.36994 336.26197 339.03996 344.03996 349.03996">Part of team that developed genetic sequencing software (Julia) for amplicon denoising </tspan></text>
</g>
</g>
<g id="Layer-2" data-name="P">
<g id="Layer-3" data-name="P">
<text fill="#404040" xml:space="preserve" transform="matrix(1 0 -0 1 54 283.3795)" font-size="12" font-family="TimesNewRomanPS" font-weight="bold"><tspan y="0" x="0">&#x2022;</tspan></text>
</g>
<g id="Layer-3" data-name="P">
<text fill="#404040" xml:space="preserve" transform="matrix(1 0 -0 1 68.18182 281.8546)" font-size="10" font-family="TimesNewRomanPSMT"><tspan y="0" x="0 6.6700007 11.67 15 20 24.438 29.438 33.876 36.654 41.654 46.654 51.092004 56.092004 58.592004 62.484 65.262 69.700008 72.478008 75.256008 79.148 81.926 84.704 89.142009 93.58001 96.35801 98.85801 102.75001 107.18801 114.96601 119.96601 122.74401 127.182018 130.51201 134.404 136.904 141.904 146.904 149.404 152.73401 157.17201 161.61002 164.38802 166.88802 171.88802 176.32602 179.10402 183.54203 186.87203 190.76403 195.20203 197.98003 201.87203 204.37203 209.37203 213.26403 216.04203 221.04203 226.04203 228.54203 235.21202 239.65003 244.65003 249.08803 252.98003 255.75803 260.196 265.196 267.696 270.196 275.75804 280.75804 285.75804 289.088 291.866 296.304 299.23399 301.73399 304.23399 308.67198 313.67198 318.67198 321.17198 323.94996 326.72795 331.72795 336.16593 338.9439 341.7219 346.7219 351.7219 356.7219 361.7219 364.2219 371.99989 376.99989 381.99989 386.43788 389.21586 393.10789">Co-developed statistical samplers on real data-sets using Bayesian, Fourier, and likelihood modals </tspan></text>
</g>
</g>
<g id="Layer-2" data-name="P">
<g id="Layer-3" data-name="P">
<text fill="#404040" xml:space="preserve" transform="matrix(1 0 -0 1 54 294.3795)" font-size="12" font-family="TimesNewRomanPS" font-weight="bold"><tspan y="0" x="0">&#x2022;</tspan></text>
</g>
<g id="Layer-3" data-name="P">
<text fill="#404040" xml:space="preserve" transform="matrix(1 0 -0 1 68.18182 292.8546)" font-size="10" font-family="TimesNewRomanPSMT"><tspan y="0" x="0 7.2220008 11.660001 16.66 21.098 23.876 28.876 33.876 38.314004 43.314004 45.814004 50.252008 55.252008 57.752008 62.19001 67.19001 69.96801 74.96801 82.74601 87.18401 89.96201 94.40002 99.40002 101.90002 104.67802 109.11602 113.00802 115.78602 118.28602 122.17802 127.17802 129.95603 132.73403 137.17203 139.67203 143.00203 148.00203 151.33203 153.83203 156.61003 161.61003 164.38803 168.82604 172.15604 177.15604 182.15604 186.59404 189.92404 194.36205 199.36205 202.14005 204.91805 207.69605 210.47405 215.47405">Developed an automated test suite for interoperability </tspan></text>
</g>
</g>
<g id="Layer-2" data-name="P">
<g id="Layer-3" data-name="P">
<text fill="#404040" xml:space="preserve" transform="matrix(1 0 -0 1 54 305.3795)" font-size="12" font-family="TimesNewRomanPS" font-weight="bold"><tspan y="0" x="0">&#x2022;</tspan></text>
</g>
<g id="Layer-3" data-name="P">
<text fill="#404040" xml:space="preserve" transform="matrix(1 0 -0 1 68.18182 303.8546)" font-size="10" font-family="TimesNewRomanPSMT"><tspan y="0" x="0 7.2220008 12.222 16.66 19.438 24.438 28.876 33.314004 38.314004 40.814004 45.252008 50.252008 55.252008 57.752008 62.752008 67.19001 71.62801 76.62801 81.06602 86.06602 90.50402 95.50402 98.00402 102.442028 107.442028 112.442028 116.88003 119.38003 122.15803 127.15803 129.65802 133.55002 137.98802 140.76602 143.54402 147.43602 150.76602 155.76602 158.26602 162.15802 167.15802 169.93602 172.71402 177.15203 179.65203 187.43003 191.86803 194.64603 199.08403 204.08403 208.52204 211.30004 215.73804 218.23804 222.67604 227.67604 235.45404 240.45404 243.23204 246.01004 250.44805 255.44805 259.88603 264.324 266.824">Analyzed and packaged code to satisfy Julia metadata compliance  </tspan></text>
</g>
</g>
</g>
<g id="Layer-1" data-name="P">
<text fill="#404040" xml:space="preserve" transform="matrix(1 0 -0 1 54 331.5958)" font-size="11" font-family="TimesNewRomanPS" font-weight="bold"><tspan y="0" x="0 6.7188 11.4026 16.9026 23.0208 26.6838 31.565602 37.683805 43.802007 46.352907 56.745706 61.627504 67.7457 70.4957 78.439899 83.3217 88.8217 93.70351 96.75931 102.25931 108.3775 113.25931 117.94311 120.69311">Frontend Web Developer &#x2014;</tspan></text>
<text fill="#404040" xml:space="preserve" transform="matrix(1 0 -0 1 54 331.5958)" font-size="11" font-family="TimesNewRomanPS" font-style="italic"><tspan y="0" x="131.6938 134.4438 139.9438 145.4438 150.9438 153.9996 158.88141 161.63141 167.13141 172.63141 178.13141 183.01322 187.89502 190.64502 194.30802 200.42621 205.92621 210.80802 216.30802 219.36382 222.11382 227.61382 230.66962 236.16962 240.45082 243.50662 249.00662 254.50662 258.16963 287.99723 323.99693 326.74693 329.49693 332.24693 334.99693 337.74693 340.49693 359.9966 362.7466 365.4966 368.2466 370.9966 373.7466 376.4966 379.2466 381.9966 384.7466 387.4966"> Sapie Space (Local Startup)                    </tspan></text>
<text fill="#404040" xml:space="preserve" transform="matrix(1 0 -0 1 54 331.5958)" font-size="10" font-family="TimesNewRomanPS" font-style="italic"><tspan y="0" x="390.25 394.688 399.688 404.688 409.688 414.688 418.58003 423.018 425.518 430.518 435.518 440.518 445.518 448.018 451.348 453.667 459.77497 464.77497 469.77497 474.77497 478.667 481.44499 483.94499 488.94499 493.94499 498.94499">January 2018 - August 2018</tspan></text>
<text fill="#404040" xml:space="preserve" transform="matrix(1 0 -0 1 54 331.5958)" font-size="11" font-family="TimesNewRomanPSMT"><tspan y="0" x="503.9463"> </tspan></text>
</g>
<g id="Layer-1" data-name="P">
<g id="Layer-2" data-name="P">
<g id="Layer-3" data-name="P">
<text fill="#404040" xml:space="preserve" transform="matrix(1 0 -0 1 54 345.0732)" font-size="13.2" font-family="TimesNewRomanPS" font-weight="bold"><tspan y="0" x="0">&#x2022;</tspan></text>
</g>
<g id="Layer-3" data-name="P">
<text fill="#404040" xml:space="preserve" transform="matrix(1 0 -0 1 68.18182 343.5958)" font-size="11" font-family="TimesNewRomanPSMT"><tspan y="0" x="0">L</tspan></text>
<text fill="#404040" xml:space="preserve" transform="matrix(1 0 -0 1 68.18182 343.5958)" font-size="10" font-family="TimesNewRomanPSMT"><tspan y="0" x="6.719238 11.157239 16.157238 18.657238 21.435238 26.435238 30.873238 33.373239 36.151239 40.58924 45.027246 52.805246 55.305246 58.083246 63.083246 67.52125 70.29925 72.79925 77.79925 82.23725 86.12925 88.90725 93.90725 98.90725 103.34525 108.34525 110.84525 115.28326 120.28326 125.28326 127.78326 132.78327 137.22127 142.22127 146.65927 149.43727 154.43727 159.43727 163.87528 168.87528 171.37528 174.70528 178.03528 183.03528 188.03528 190.81328 195.25128 200.25128 205.25128 207.75128 211.08129 214.41129 218.84929 226.62729 231.06529 238.2873 243.2873 246.6173 251.6173 254.1173 257.4473 262.4473 265.77729 268.27729 272.71528 275.21528 279.1073 284.1073 288.5453 291.32328 295.76127 298.53926 301.03926 303.81724 306.5952 310.48725 313.26524 316.0432 321.0432 326.0432 328.5432 335.76524 340.20323 345.20323 347.70323 352.1412 357.1412 362.1412 364.9192 367.69718 372.13517 376.57316 379.35115 382.12913 387.12913 392.12913">ed the team that designed and developed frontend framework for a social listing web application </tspan></text>
</g>
</g>
<g id="Layer-2" data-name="P">
<g id="Layer-3" data-name="P">
<text fill="#404040" xml:space="preserve" transform="matrix(1 0 -0 1 54 356.3795)" font-size="12" font-family="TimesNewRomanPS" font-weight="bold"><tspan y="0" x="0">&#x2022;</tspan></text>
</g>
<g id="Layer-3" data-name="P">
<text fill="#404040" xml:space="preserve" transform="matrix(1 0 -0 1 68.18182 354.8546)" font-size="10" font-family="TimesNewRomanPSMT"><tspan y="0" x="0 3.33 8.33 11.108001 15.546001 20.546002 23.876002 28.314002 31.092001 35.530004 40.530004 43.030004 48.030004 52.468004 56.906007 61.906007 66.34401 71.34401 76.34401 78.29201 84.713008 94.15101 99.713008 102.213008 108.883 113.883 118.883 123.883 126.661 129.43901 134.43901 136.93901 144.16101 148.05301 152.49102 155.82102 160.82102 165.82102 170.82102 173.59902 177.49102 179.99102 183.32102 188.32102 192.21302 196.65102 199.98102 202.48102 206.91902 211.91902 214.69702 219.69702 224.13503 229.13503 231.91303 234.69103 239.12903 243.56703 246.34503 249.12303 254.12303 259.12306 262.45304 264.95304 269.39103 274.39103 279.39103 281.89103 287.999 290.77699 295.21498 299.107 301.88499 304.66297 309.10096 311.60096 317.16297 321.60096 326.03895 329.36894 333.80693 338.80693 341.30693 344.6369 347.9669 352.40489 356.84288 359.62086 362.95085 365.72883 368.5068 376.2848 380.72279 383.22279 388.22279 392.66078 395.43876 399.87675 404.87675 409.31474 413.20677 417.64476 420.97474">Integrated backend AWS Cognito Userpools (user authentication) and Elastic Search (real-time database) </tspan></text>
</g>
</g>
<g id="Layer-2" data-name="P">
<g id="Layer-3" data-name="P">
<text fill="#404040" xml:space="preserve" transform="matrix(1 0 -0 1 54 367.3795)" font-size="12" font-family="TimesNewRomanPS" font-weight="bold"><tspan y="0" x="0">&#x2022;</tspan></text>
</g>
<g id="Layer-3" data-name="P">
<text fill="#404040" xml:space="preserve" transform="matrix(1 0 -0 1 68.18182 365.8546)" font-size="10" font-family="TimesNewRomanPSMT"><tspan y="0" x="0 7.2220008 11.660001 16.66 21.098 23.876 28.876 33.876 38.314004 43.314004 45.814004 50.252008 55.252008 60.252008 62.752008 65.53001 70.53001 73.30801 77.74601 82.74601 86.07601 90.514019 93.292018 97.73002 102.73002 105.23002 108.00802 110.78602 115.22402 118.35403 121.68403 126.68403 131.12203 135.01403 139.45203 144.45203 146.95203 151.95203 155.84403 160.28203 163.61203 166.11203 170.00403 175.00403 180.00403 183.89603 188.33403 191.66403 194.44203 199.44203 202.22003 204.99803 209.99803 214.99803 217.49803 222.49803 226.93604 229.71404 234.71404 238.60604 241.10604 245.54404 250.54404 255.54404 258.04405 263.04405 267.48204 272.48204 280.26 284.698 289.698 292.47599 296.368 298.868 303.868 307.76005 310.53804 315.53804 320.53804 323.03804 328.60005 333.60005 336.37803 341.37803 346.37803 351.37803 353.87803 359.44004 362.21803 365.548 368.326 373.326 377.76399 379.71199 386.934 392.496 395.826">Developed and integrated tier-based user subscription paths and payments using Python Stripe API </tspan></text>
</g>
</g>
</g>
<g id="Layer-1" data-name="P">
<text fill="#404040" xml:space="preserve" transform="matrix(1 0 -0 1 54 389.5958)" font-size="11" font-family="TimesNewRomanPS" font-weight="bold"><tspan y="0" x="0 7.944201 12.826001 17.1072 21.989003 27.489003 32.172803 37.0546 43.172803 45.3156 53.259805 57.541006 61.822206 64.878009 69.1592 72.822208 78.322208 84.4404 88.1034 90.8534 101.8534">Research Assistant &#x2014; </tspan></text>
<text fill="#404040" xml:space="preserve" transform="matrix(1 0 -0 1 54 389.5958)" font-size="11" font-family="TimesNewRomanPS" font-style="italic"><tspan y="0" x="104.6021 112.546298 118.046298 123.546298 127.82749 132.70929 138.20929 140.95929 147.07749 152.57749 158.07749 160.82749 180.00049 216.00019 251.99988 287.99958 323.99928 326.74928 329.49928 332.24928 334.99928 337.74928 340.49928 343.24928 345.99928 348.74928 351.49928 354.24928 356.99928 359.74928 359.99897 362.74897 365.49897 368.24897 370.99897 373.74897 376.49897 379.24897 381.99897 384.74897">Hnasko Lab                              </tspan></text>
<text fill="#404040" xml:space="preserve" transform="matrix(1 0 -0 1 54 389.5958)" font-size="10" font-family="TimesNewRomanPS" font-style="italic"><tspan y="0" x="387.5 392.5 396.938 401.938 404.71598 409.15397 416.37599 421.37599 425.81398 429.706 432.206 437.206 442.206 447.206 452.206 454.706 458.03599 460.53599 464.97398 469.97398 474.97398 479.41197 481.91197 486.91197 491.91197 496.91197">September 2017 - June 2019</tspan></text>
<text fill="#404040" xml:space="preserve" transform="matrix(1 0 -0 1 54 389.5958)" font-size="11" font-family="TimesNewRomanPSMT"><tspan y="0" x="501.9141"> </tspan></text>
</g>
<g id="Layer-1" data-name="P">
<g id="Layer-2" data-name="P">
<g id="Layer-3" data-name="P">
<text fill="#404040" xml:space="preserve" transform="matrix(1 0 -0 1 54 402.3795)" font-size="12" font-family="TimesNewRomanPSMT"><tspan y="0" x="0">&#x2022;</tspan></text>
</g>
<g id="Layer-3" data-name="P">
<text fill="#404040" xml:space="preserve" transform="matrix(1 0 -0 1 68.18182 400.8546)" font-size="10" font-family="TimesNewRomanPSMT"><tspan y="0" x="0 7.2220008 12.222 17.222 21.66 24.809 29.809 33.139 37.577005 42.577005 47.577005 52.015008 54.793008 59.23101 61.73101 65.06101 69.499019 73.391017 77.82902 82.26702 85.59702 90.03503 95.03503 97.53503 101.97303 105.86503 109.75703 112.53503 116.427028 119.205028 123.64303 128.64304 131.42104 133.92104 136.69904 141.69904 144.19904 146.97704 151.97704 156.41504 158.91504 164.47704 168.91504 173.91504 178.91504 183.91504 186.69304 189.19304 194.19304 197.52304 200.02304 208.91504 213.35305 218.35305 221.13105 225.56905 228.34705 233.34705 237.78505 240.28505 244.72306 247.50106 250.00106 257.22306 263.89308 266.39308 271.95509 276.39308 281.39308 283.89308 291.11509 293.89308 298.33106 303.33106 308.33106">Undergraduate research assistant in the School of Medicine at UC San Diego </tspan></text>
</g>
</g>
<g id="Layer-2" data-name="P">
<g id="Layer-3" data-name="P">
<text fill="#404040" xml:space="preserve" transform="matrix(1 0 -0 1 54 413.3795)" font-size="12" font-family="TimesNewRomanPSMT"><tspan y="0" x="0">&#x2022;</tspan></text>
</g>
<g id="Layer-3" data-name="P">
<text fill="#404040" xml:space="preserve" transform="matrix(1 0 -0 1 68.18182 411.8546)" font-size="10" font-family="TimesNewRomanPSMT"><tspan y="0" x="0 6.6700007 11.67 16.67 21.108 26.108 28.608 37.5 41.938005 46.938005 50.268007 55.830007 62.500009 65.00001 68.33001 75.37101 77.87101 82.87101 86.20101 91.20101 96.20101 99.53101 103.96902 111.74702 115.639019 118.139019 121.46902 126.46902 129.79901 132.29901 135.07701 138.40702 142.84502 145.62302 150.62302 153.40102 158.40102 163.40102 165.90102 173.67902 176.45702 180.89502 185.33303 187.83303 195.05503 197.83303 200.61103 205.61103 208.11103">Coded Med-PC IV programs for training mice with e</tspan></text>
<text fill="#404040" xml:space="preserve" transform="matrix(1 0 -0 1 68.18182 411.8546)" font-size="10" font-family="TimesNewRomanPSMT"><tspan y="0" x="212.5537 217.5537 220.3317 224.7697 229.7697 233.6617 236.4397 241.4397 245.8777 248.3777 252.2697 255.0477 259.4857 262.26368 265.04167 268.9337 271.71168 274.48966 278.92765 283.36564 286.14363 288.64363 293.0816 298.0816 302.5196 305.29759 310.29759 314.1896 316.9676 320.85963 323.35963 328.35963 333.35963 335.85963 340.85963 345.2976 350.2976 354.7356 359.7356 362.51359 367.51359 370.84358 375.28157 378.05955 380.55955 385.55955 389.99754 392.7755 397.2135 399.7135 403.0435 406.37348 411.37348 419.15147 421.65147 424.42945 428.86744 433.86744 436.36744 440.25947 445.25947 450.25947 453.03746 457.47544 461.91343 464.6914">xtensive statistical analysis on behavioral data from lab subjects</tspan></text>
<text fill="#404040" xml:space="preserve" transform="matrix(1 0 -0 1 68.18182 411.8546)" font-size="11" font-family="TimesNewRomanPSMT"><tspan y="0" x="468.5938"> </tspan></text>
</g>
</g>
</g>
<g id="Layer-1" data-name="P">
<text fill="#404040" xml:space="preserve" transform="matrix(1 0 -0 1 61.77271 427.0782)" font-size="11" font-family="TimesNewRomanPS" font-weight="bold"><tspan y="0" x="0 11 22 33 44 55 66 77 88 99 110 121 132 143 154 165 176 187 198">&#x2014;&#x2014;&#x2014;&#x2014;&#x2014;&#x2014;&#x2014;&#x2014;&#x2014;&#x2014;&#x2014;&#x2014;&#x2014;&#x2014;&#x2014;&#x2014;&#x2014;&#x2014;&#x2014;</tspan></text>
<text xml:space="preserve" transform="matrix(1 0 -0 1 61.77271 427.0782)" font-size="13" font-family="TimesNewRomanPS" font-weight="bold"><tspan y="0" x="209 212.25">  </tspan></text>
<text xml:space="preserve" transform="matrix(1 0 -0 1 61.77271 427.0782)" font-size="11" font-family="TimesNewRomanPS" font-weight="bold"><tspan y="0" x="215.5 222.2188 230.163 238.7188 244.2188 251.5558 259.5 266.837">PROJECTS</tspan></text>
<text xml:space="preserve" transform="matrix(1 0 -0 1 61.77271 427.0782)" font-size="13" font-family="TimesNewRomanPS" font-weight="bold"><tspan y="0" x="272.9546 276.2046">  </tspan></text>
<text fill="#404040" xml:space="preserve" transform="matrix(1 0 -0 1 61.77271 427.0782)" font-size="11" font-family="TimesNewRomanPS" font-weight="bold"><tspan y="0" x="279.4546 290.4546 301.4546 312.4546 323.4546 334.4546 345.4546 356.4546 367.4546 378.4546 389.4546 400.4546 411.4546 422.4546 433.4546 444.4546 455.4546 466.4546 477.4546">&#x2014;&#x2014;&#x2014;&#x2014;&#x2014;&#x2014;&#x2014;&#x2014;&#x2014;&#x2014;&#x2014;&#x2014;&#x2014;&#x2014;&#x2014;&#x2014;&#x2014;&#x2014;&#x2014;</tspan></text>
<text xml:space="preserve" transform="matrix(1 0 -0 1 61.77271 427.0782)" font-size="11" font-family="TimesNewRomanPSMT"><tspan y="0" x="488.4546"> </tspan></text>
</g>
<g id="Layer-1" data-name="P">
<text fill="#404040" xml:space="preserve" transform="matrix(1 0 -0 1 54 451.5958)" font-size="11" font-family="TimesNewRomanPS" font-weight="bold"><tspan y="0" x="0 6.327201 12.445401 16.108403 21.608403 26.490204 29.546006 35.664209 41.164209 43.914209 50.633008 56.75121 61.03241 67.150608 69.900608 77.8448 83.3448 87.007808 90.06361 93.72661 96.78241 101.664218 107.164218 110.82722 113.88302 119.38302 125.50121 129.78241 132.53241 143.53241">Tutoring Push Notifications &#x2014; </tspan></text>
<text fill="#404040" xml:space="preserve" transform="matrix(1 0 -0 1 54 451.5958)" font-size="11" font-family="TimesNewRomanPS" font-style="italic"><tspan y="0" x="146.2817 154.22589 161.5629 164.3129 169.8129 175.3129 180.8129 183.5629 191.5071 194.5629 199.4447 204.9447 210.4447 213.1947 222.3577 227.8577 233.3577 236.4135 239.4693 244.3511 246.90201 253.6208 259.1208 264.6208 267.6766 270.73243 275.61424 281.11424 284.17005 287.22587 292.72587 298.22587 323.99555 359.99525 395.99494 431.99464 434.74464 437.49464 440.24464 442.99464 445.74464 448.49464 451.24464 453.99464 456.74464 459.49464">UC San Diego Mobile Application               </tspan></text>
<text fill="#404040" xml:space="preserve" transform="matrix(1 0 -0 1 54 451.5958)" font-size="10" font-family="TimesNewRomanPS" font-style="italic"><tspan y="0" x="462.25 468.35798 473.35798 476.13597 478.91395 481.41395 486.41395 491.41395 496.41395">Fall 2018</tspan></text>
<text fill="#404040" xml:space="preserve" transform="matrix(1 0 -0 1 54 451.5958)" font-size="10" font-family="TimesNewRomanPSMT"><tspan y="0" x="501.415"> </tspan></text>
</g>
<g id="Layer-1" data-name="P">
<g id="Layer-2" data-name="P">
<g id="Layer-3" data-name="P">
<g id="Layer-4" data-name="P">
<text fill="#404040" xml:space="preserve" transform="matrix(1 0 -0 1 54 464.3795)" font-size="12" font-family="TimesNewRomanPSMT"><tspan y="0" x="0">&#x2022;</tspan></text>
</g>
<g id="Layer-4" data-name="P">
<text fill="#404040" xml:space="preserve" transform="matrix(1 0 -0 1 66 462.8546)" font-size="10" font-family="TimesNewRomanPSMT"><tspan y="0" x="0 8.6380009 13.6380009 16.968 21.968 26.406 31.406 33.906 38.906 43.906 46.406 50.844 53.344 56.122 60.560007 64.99801 72.77601 75.27601 78.05401 83.05401 87.49201 90.27001 92.77001 97.77001 102.208019 106.10001 108.87801 113.87801 118.87801 123.31602 128.31601 130.81601 135.25402 137.75402 141.08402 146.08402 148.86202 151.64002 154.14002 158.03202 160.81002 165.24802 169.68602 174.68602 176.63402 183.85602 189.41802 192.74802 195.24802 198.02602 203.02602 205.52602 210.52602 215.52602 218.30402 221.08202 224.41202 229.41202 231.91202 235.80402 238.58202 243.58202 248.58202 253.02002 258.02003 260.798 264.69004 267.19004 272.19004 275.52003 278.02003 283.02003 288.02003 292.458 297.458 305.236 308.01399 313.01399 318.01399 320.51399 323.29197 328.29197 331.06996 336.06996 339.39994 342.17793 347.17793 352.17793 354.67793 358.56996 363.00794 366.89997 370.792 373.56999 378.56999 383.56999 387.462 389.962 393.292 398.292 401.62199 404.12199 406.89997 411.89997 416.33796 419.11595 422.44593 424.94593 429.3839 432.1619 436.59989 440.4919 444.38395 448.82194 452.71397">Worked on a team that designed a full stack API to notify students of upcoming tutoring sessions for their classes </tspan></text>
</g>
</g>
<g id="Layer-3" data-name="P">
<g id="Layer-4" data-name="P">
<text fill="#404040" xml:space="preserve" transform="matrix(1 0 -0 1 54 476.3795)" font-size="12" font-family="TimesNewRomanPSMT"><tspan y="0" x="0">&#x2022;</tspan></text>
</g>
<g id="Layer-4" data-name="P">
<text fill="#404040" xml:space="preserve" transform="matrix(1 0 -0 1 66 474.8546)" font-size="10" font-family="TimesNewRomanPSMT"><tspan y="0" x="0 6.6700007 9.448001 12.226001 16.664 21.664 24.442 26.942 30.272 32.772 38.334 42.772005 46.102006 51.102006 55.54001 58.87001 61.37001 66.37001 70.808017 73.58601 78.02402 80.52402 84.416019 87.194019 90.52402 95.52402 99.96202 102.74002 107.74002 111.07002 115.508029 119.400028 121.900028 126.900028 129.67803 134.11603 136.61603 143.28603 149.39403 154.95603 160.88402 162.83202 170.05402 175.61602 178.94602 181.44602 185.88402 190.88402 195.88402 198.38402 201.71402 206.15203 211.15203 216.15203 220.59003 225.02803 228.35803 232.25003">Client - Server data structures via REST API and reducers </tspan></text>
</g>
</g>
</g>
</g>
<g id="Layer-1" data-name="P">
<text fill="#404040" xml:space="preserve" transform="matrix(1 0 -0 1 54 500.5958)" font-size="11" font-family="TimesNewRomanPS" font-weight="bold"><tspan y="0" x="0 6.118201 9.7812 15.899402 22.017601 27.517601 30.267601 38.8234 43.5072 49.0072 55.1254 61.243604 65.5248 67.6676 75.6118 81.729999 87.84819 90.59819 101.59819">Study Groups App &#x2014; </tspan></text>
<text fill="#404040" xml:space="preserve" transform="matrix(1 0 -0 1 54 500.5958)" font-size="11" font-family="TimesNewRomanPS" font-style="italic"><tspan y="0" x="104.3442 107.4 115.3442 120.8442 123.3951 130.1139 135.6139 141.1139 143.8639 149.3639 152.41971 157.91971 161.79282 166.67462">iOS App Store </tspan></text>
<text fill="#404040" xml:space="preserve" transform="matrix(1 0 -0 1 54 500.5958)" font-size="11" font-family="TimesNewRomanPSMT"><tspan y="0" x="169.4258 174.3076 179.8076 185.3076">and </tspan></text>
<text fill="#404040" xml:space="preserve" transform="matrix(1 0 -0 1 54 500.5958)" font-size="11" font-family="TimesNewRomanPS" font-style="italic"><tspan y="0" x="188.0581 196.0023 201.5023 207.0023 212.5023 215.5581 220.43991 223.18991 229.9087 232.96451 238.46451 243.34632 246.09632 251.59632 254.65212 260.1521 264.02519 268.90699 287.9975 323.9972 359.9969 362.7469 365.4969 368.2469 370.9969 373.7469 376.4969 379.2469">Google Play Store           </tspan></text>
<text fill="#404040" xml:space="preserve" transform="matrix(1 0 -0 1 54 500.5958)" font-size="10" font-family="TimesNewRomanPS" font-style="italic"><tspan y="0" x="382 387 391.438 396.438 399.21598 403.65397 410.87599 415.87599 420.31398 424.206 426.706 431.706 436.706 441.706 446.706 449.206 452.53599 455.03599 463.36598 468.36598 471.887 476.32499 481.32499 483.82499 488.82499 493.82499 498.82499">September 2018 - March 2020</tspan></text>
<text fill="#404040" xml:space="preserve" transform="matrix(1 0 -0 1 54 500.5958)" font-size="11" font-family="TimesNewRomanPS" font-weight="bold"><tspan y="0" x="503.8262"> </tspan></text>
</g>
<g id="Layer-1" data-name="P">
<g id="Layer-2" data-name="P">
<g id="Layer-3" data-name="P">
<g id="Layer-4" data-name="P">
<text fill="#404040" xml:space="preserve" transform="matrix(1 0 -0 1 54 513.3795)" font-size="12" font-family="TimesNewRomanPSMT"><tspan y="0" x="0">&#x2022;</tspan></text>
</g>
<g id="Layer-4" data-name="P">
<text fill="#404040" xml:space="preserve" transform="matrix(1 0 -0 1 66 511.8546)" font-size="10" font-family="TimesNewRomanPSMT"><tspan y="0" x="0 7.2220008 11.660001 15.552001 18.33 23.33 28.33 32.768 37.768 40.268 42.768 47.768 52.206 57.206 61.644006 64.422008 69.422008 74.422008 78.86001 83.86001 86.36001 88.86001 91.63801 96.07601 99.96801 102.74601 107.18401 112.18401 114.68401 117.18401 122.18401 127.18401 132.18402 134.96202 137.74002 141.63202 146.63202 151.07003 156.07003 158.57003 161.07003 165.50803 170.50803 175.50803 178.00803 185.78603 190.22403 193.00203 198.00203 200.78003 205.21804 207.99604 212.99604 217.43404 222.43404 224.93404 229.37204 231.87204 236.31005 239.64005 244.64005 248.53205 252.42404 254.92404 259.92405 262.70204 267.14 269.918 273.248 278.248 281.57798 289.35597 291.85597 295.748 300.748 305.18598 307.96397 312.40196 315.17994 317.67994 322.67994 327.11793 329.8959 337.11793 342.11793 345.4479 350.4479 353.2259 358.2259 363.2259 365.7259 373.50389 378.50389 383.50389 386.28187 389.05986 393.49784 395.99784 400.43583 405.43583 410.43583 412.93583 415.7138 420.7138 425.1518 427.92979 430.42979 434.86778 437.64576 440.42375 445.42375 452.64576 456.53779 459.03779 462.9298 465.7078 470.7078 475.7078 480.14579 485.14579 487.92378 491.8158">Designed, developed, tested, published, and maintained a cross platform social networking mobile app that allows students </tspan></text>
<text fill="#404040" xml:space="preserve" transform="matrix(1 0 -0 1 66 522.8546)" font-size="10" font-family="TimesNewRomanPSMT"><tspan y="0" x="0 2.778 7.778 10.278 14.716001 19.716 24.716 29.716 34.154 38.592004 41.370004 43.870004 51.092004 53.870004 56.648004 61.648004 64.148 66.926 71.926 76.364009 79.142009 82.47201 84.97201 89.97201 94.41001 98.848018 102.17802 106.070018 108.570018 113.00802 115.78602 118.28602 121.06402 126.06402 130.50202 133.28002 136.61002 139.11002 143.54802 147.98603 152.42403 157.42403 161.86203 169.64003 172.41803 176.85604 179.35604 182.13404 187.13404 191.02603 193.80403 196.58203 199.36003 204.36003 207.13803 209.91603 214.91603 219.91603 222.41603 225.19403 230.19403 232.69403 236.02404 238.80204 243.80204 248.80204 251.30204 255.74004 260.74006 265.74006 268.24006 272.67805 276.00804 280.446 284.884 287.662 292.09999 294.59999 298.492 301.27 306.27 311.27 316.27 318.77 323.77 327.09999 332.09999 337.09999 342.09999 345.992">to connect with their peers at their academic institution to find and create study groups </tspan></text>
</g>
</g>
<g id="Layer-3" data-name="P">
<g id="Layer-4" data-name="P">
<text fill="#404040" xml:space="preserve" transform="matrix(1 0 -0 1 54 536.3795)" font-size="12" font-family="TimesNewRomanPSMT"><tspan y="0" x="0">&#x2022;</tspan></text>
</g>
<g id="Layer-4" data-name="P">
<text fill="#404040" xml:space="preserve" transform="matrix(1 0 -0 1 66 534.8546)" font-size="10" font-family="TimesNewRomanPSMT"><tspan y="0" x="0 6.6700007 11.108001 15.546001 18.324002 21.654002 24.432002 27.210001 34.988004 39.426004 41.926004 47.488004 50.266004 53.596 58.034006 63.034006 67.47201 71.364009 75.80201 78.30201 82.74001 87.74001 90.51801 95.51801 99.95602 104.95602 107.73402 110.51202 114.95002 119.38802 122.16602 124.94402 129.94403 134.94403 137.44403 141.88204 146.88204 151.88204 154.38204 159.38204 163.82004 166.59804 171.03604 176.03604 180.47405 184.36605 188.80405 191.30405 194.08205 199.08205 201.86005 206.29805 211.29805 214.62805 219.06606 221.84406 224.62206 229.62206 234.62206">Real-time Firebase authentication and database integration </tspan></text>
</g>
</g>
</g>
</g>
<g id="Layer-1" data-name="P">
<g id="Layer-2" data-name="P">
<text fill="#404040" xml:space="preserve" transform="matrix(1 0 -0 1 54 563.5958)" font-size="11" font-family="TimesNewRomanPS" font-weight="bold"><tspan y="0" x="0 7.944201 12.826001 18.326 23.207802 26.870802 29.620802 37.565004 43.065004 46.728006 49.783803 55.283803 60.1656 62.9156 70.859798 76.359798 80.0228 83.0786 89.19679 94.69679 96.83959 104.78379 110.901988">React Native Dating App</tspan></text>
</g>
<g id="Layer-2" data-name="P">
<text fill="#404040" xml:space="preserve" transform="matrix(1 0 -0 1 54 563.5958)" font-size="11" font-family="TimesNewRomanPS" font-style="italic"><tspan y="0" x="117.02 119.77 129.5512 132.1021 138.21479 143.09659 148.59659 151.65239 154.70819 160.20819 165.70819 168.76399 173.6458 176.3958 181.8958 187.3958 190.1458 195.6458 201.1458 206.6458 209.7016 212.7574 217.6392 220.3892 228.3334 231.3892 234.445 242.3892 247.8892 253.3892 256.13923 260.0123 264.8941 270.3941 275.8941 280.1753 283.2311 286.28694 291.78694 296.0681 300.94993 323.99714 359.99684 395.99653 431.99623 434.74623 437.49623 440.24623 442.99623 445.74623 448.49623 451.24623 453.99623 456.74623 459.49623"> &#x2014; Available on public GitHub repository               </tspan></text>
</g>
<g id="Layer-2" data-name="P">
<text fill="#404040" xml:space="preserve" transform="matrix(1 0 -0 1 54 563.5958)" font-size="10" font-family="TimesNewRomanPS" font-style="italic"><tspan y="0" x="462.25 466.688 471.688 476.688 481.12599 483.62599 488.62599 493.62599 498.62599">June 2018</tspan></text>
</g>
<g id="Layer-2" data-name="P">
<text fill="#404040" xml:space="preserve" transform="matrix(1 0 -0 1 54 563.5958)" font-size="11" font-family="TimesNewRomanPS" font-weight="bold"><tspan y="0" x="503.627"> </tspan></text>
</g>
</g>
<g id="Layer-1" data-name="P">
<g id="Layer-2" data-name="P">
<g id="Layer-3" data-name="P">
<text fill="#404040" xml:space="preserve" transform="matrix(1 0 -0 1 54 576.3795)" font-size="12" font-family="TimesNewRomanPSMT"><tspan y="0" x="0">&#x2022;</tspan></text>
</g>
<g id="Layer-3" data-name="P">
<text fill="#404040" xml:space="preserve" transform="matrix(1 0 -0 1 66.24 574.8546)" font-size="10" font-family="TimesNewRomanPSMT"><tspan y="0" x="0 7.2220008 11.660001 16.66 21.098 23.876 28.876 33.876 38.314004 43.314004 45.814004 50.252008 55.252008 57.752008 62.752008 67.75201 72.19001 77.19001 79.69001 83.58201 88.58201 93.58201 96.91201 101.35001 105.78802 108.28802 111.61802 114.94802 119.94802 124.94802 127.72602 132.16402 137.16402 142.16402 144.66402 147.99402 151.32402 155.76203 163.54003 167.97803 175.20003 180.20003 183.53003 188.53003 191.03003 194.36003 199.36003 202.69004 205.19004 209.62804 212.12804 219.90604 224.90604 229.90604 232.68404 235.46204 239.90004 242.40004 246.83805 251.83805 256.83805 259.33805 264.33805 269.33805 274.33805 277.11604 279.894 284.332 287.11 292.11 294.61 302.38798 306.82597 311.82597 316.26396 318.76396 323.20195 328.20195 332.63993 335.4179 338.1959 342.63389 347.63389 350.41188 354.84986 357.34986 362.34986 367.34986 369.84986 377.07188 379.84986 382.62785 389.84986 394.84986 399.84986">Developed an open source frontend framework for a mobile app publicly made available on GitHub </tspan></text>
</g>
</g>
<g id="Layer-2" data-name="P">
<g id="Layer-3" data-name="P">
<text fill="#404040" xml:space="preserve" transform="matrix(1 0 -0 1 54 588.3795)" font-size="12" font-family="TimesNewRomanPSMT"><tspan y="0" x="0">&#x2022;</tspan></text>
</g>
<g id="Layer-3" data-name="P">
<text fill="#404040" xml:space="preserve" transform="matrix(1 0 -0 1 66.24 586.8546)" font-size="10" font-family="TimesNewRomanPSMT"><tspan y="0" x="0 6.6700007 11.67 16.67 21.108 26.108 28.608 33.608 37.5 41.938005 45.268007 47.768007 51.098009 53.876008 58.876008 66.09801 68.59801 73.03601 78.03601 83.03601 85.53601 89.974018 94.974018 97.752017 102.752017 107.19002 112.19002 114.96802 117.74602 122.18402 126.622028 129.40003 132.17803 137.17803 142.17803 144.67803 151.90003 154.67803 157.45603 162.45603 164.95603 168.84803 176.07003 178.84803 183.84803 188.28603 190.78603 195.22403 200.22403 204.66204 209.66204 212.44004 214.94004 219.94004 224.37804 229.37804 234.37804 237.15604 241.59404 244.92404 248.81604">Coded user flow and authentication with swipe event handlers </tspan></text>
</g>
</g>
<g id="Layer-2" data-name="P">
<g id="Layer-3" data-name="P">
<text fill="#404040" xml:space="preserve" transform="matrix(1 0 -0 1 54 600.3795)" font-size="12" font-family="TimesNewRomanPSMT"><tspan y="0" x="0">&#x2022;</tspan></text>
</g>
<g id="Layer-3" data-name="P">
<text fill="#404040" xml:space="preserve" transform="matrix(1 0 -0 1 66.24 598.8546)" font-size="10" font-family="TimesNewRomanPSMT"><tspan y="0" x="0 7.2220008 12.222 15.000001 19.438002 23.876002 26.654002 29.984002 34.984 38.314004 41.092004 45.530008 50.530008 53.308008 57.74601 62.74601 65.24601 70.24601 74.68401 78.57601 81.35401 86.35401 91.35401 93.85401 96.63201 101.63201 104.13201 111.91001 114.68801 122.46601 125.24401 129.682 132.182 137.182 141.62001 144.39801 148.83602 153.83602 158.27402 162.16602 166.60402 169.10402 174.10402 179.10402 181.88202 186.32003 190.75803 193.53603 196.03603 199.36603 203.80403 208.80403 213.80403 218.24204 221.57204 224.35004 229.35004 234.35004">Object-oriented design to mimic database object rendering </tspan></text>
<text fill="#404040" xml:space="preserve" transform="matrix(1 0 -0 1 66.24 598.8546)" font-size="11" font-family="TimesNewRomanPSMT"><tspan y="0" x="236.8604"> </tspan></text>
</g>
</g>
</g>
<g id="Layer-1" data-name="P">
<text fill="#404040" xml:space="preserve" transform="matrix(1 0 -0 1 54 625.9023)" font-size="11" font-family="TimesNewRomanPS" font-weight="bold"><tspan y="0" x="0 7.944201 12.826001 17.1072 20.163002 26.281203 31.163004 37.281206 40.944208 43.087007 51.031209 55.31241 59.59361 62.649408 66.9306 70.593608 76.093608 82.2118 85.8748 88.6248 99.6248">Resident Assistant &#x2014; </tspan></text>
<text fill="#404040" xml:space="preserve" transform="matrix(1 0 -0 1 54 625.9023)" font-size="11" font-family="TimesNewRomanPS" font-style="italic"><tspan y="0" x="102.373 110.3172 115.8172 118.873 123.75481 128.63661 132.91782 137.19902 140.25482 143.31063 148.19243 150.94243 156.44243 159.49823 162.24823 169.58524 175.08524 178.14104 181.19684 184.25264 189.75264 194.03385 199.53385 202.58965 208.08965 210.83965 213.58965 219.08965 224.58965 230.08965 232.83965 240.78385 243.83965 248.72145 254.22145 259.72145 262.47145 265.22145 267.97145 270.72145 273.47145 276.22145 278.97145 281.72145 284.47145 287.22145 289.97145 292.72145 295.47145 298.22145 300.97145 323.99665 326.74665 329.49665 332.24665 334.99665 337.74665 340.49665 343.24665 345.99665 348.74665 351.49665 359.99635 362.74635 365.49635 368.24635 370.99635 373.74635 376.49635 379.24635 381.99635 384.74635 387.49635 390.24635 392.99635 395.74635 398.49635">University of California, San Diego                                          </tspan></text>
<text fill="#404040" xml:space="preserve" transform="matrix(1 0 -0 1 54 625.9023)" font-size="10" font-family="TimesNewRomanPS" font-style="italic"><tspan y="0" x="401.25 407.35798 412.35798 417.35798 422.35798 426.25 429.02799 431.52799 434.02799 439.02799 444.02799 449.02799 454.02799 456.52799 459.85798 462.35798 466.79597 471.79597 476.79597 481.23396 483.73396 488.73396 493.73396 498.73396">August  2017 - June 2018</tspan></text>
<text fill="#404040" xml:space="preserve" transform="matrix(1 0 -0 1 54 625.9023)" font-size="13" font-family="TimesNewRomanPSMT"><tspan y="0" x="503.7354"> </tspan></text>
</g>
<g id="Layer-1" data-name="P">
<g id="Layer-2" data-name="P">
<g id="Layer-3" data-name="P">
<text fill="#404040" xml:space="preserve" transform="matrix(1 0 -0 1 54 640.9926)" font-size="12" font-family="TimesNewRomanPS" font-weight="bold"><tspan y="0" x="0">&#x2022;</tspan></text>
</g>
<g id="Layer-3" data-name="P">
<text fill="#404040" xml:space="preserve" transform="matrix(1 0 -0 1 66.24 639.4677)" font-size="10" font-family="TimesNewRomanPSMT"><tspan y="0" x="0 7.2220008 10.000001 13.330001 17.768 22.206 24.984 29.421999 34.421998 36.921998 40.813997 43.591997 48.591997 53.591997 58.03 63.03 65.808 68.308 72.746 77.746 82.746 86.076007 88.854007 91.632 96.07001 98.84801 101.34801 104.67801 109.11601 113.00801 118.00801 120.78601 125.78601 128.56401 131.34201 136.34201 141.34201 143.84201 146.34201 149.12001 151.89801 159.67601 164.11402 166.61402 174.39202 178.83002 183.83002 188.26802 193.26802 197.70603 205.48403 209.92203 214.92203 217.70003 220.20003 222.70003 227.70003 232.13803 236.57604 239.90604 242.40604 250.18404 254.62204 259.62205 262.40003 267.40003 270.73 273.508 278.508 283.508 286.008 288.508 292.94599 297.94599 302.94599 305.44599 309.88398 314.32197 318.75996 323.75996 328.19795 335.97593 338.7539 343.1919 345.6919 350.12989 355.12989 360.12989 362.62989 367.62989 372.06788 375.39787 379.2899 384.2899 389.2899 393.72789 396.50587 399.00587 403.44386 408.44386 411.22184 416.22184 420.11387 422.89186 430.66984 435.10783 440.10783 442.8858 446.77784 449.27784 452.05583 457.05583 459.55583 463.9938 468.9938 471.7718 474.54978 478.98777 483.98777 488.42576">Directed student conflict resolution, time management, peer mentoring, and academic and personal adjustments to college </tspan></text>
<text fill="#404040" xml:space="preserve" transform="matrix(1 0 -0 1 66.24 639.4677)" font-size="11" font-family="TimesNewRomanPSMT"><tspan y="0" x="490.9473"> </tspan></text>
</g>
</g>
</g>
<g id="Layer-1" data-name="P">
<text fill="#404040" xml:space="preserve" transform="matrix(1 0 -0 1 61.03784 655.43899)" font-size="11" font-family="TimesNewRomanPS" font-weight="bold"><tspan y="0" x="0 11 22 33 44 55 66 77 88 99 110 121 132 143 154 165 176 187 198 200.75">&#x2014;&#x2014;&#x2014;&#x2014;&#x2014;&#x2014;&#x2014;&#x2014;&#x2014;&#x2014;&#x2014;&#x2014;&#x2014;&#x2014;&#x2014;&#x2014;&#x2014;&#x2014;  </tspan></text>
<text xml:space="preserve" transform="matrix(1 0 -0 1 61.03784 655.43899)" font-size="11" font-family="TimesNewRomanPS" font-weight="bold"><tspan y="0" x="203.5 210.2188 218.163 225.5 232.837 237.11821 245.06241 252.18932 259.5263 263.8075 272.3633 280.3075 286.4257 289.1757">PUBLICATIONS  </tspan></text>
<text fill="#404040" xml:space="preserve" transform="matrix(1 0 -0 1 61.03784 655.43899)" font-size="11" font-family="TimesNewRomanPS" font-weight="bold"><tspan y="0" x="291.9243 302.9243 313.9243 324.9243 335.9243 346.9243 357.9243 368.9243 379.9243 390.9243 401.9243 412.9243 423.9243 434.9243 445.9243 456.9243 467.9243 478.9243">&#x2014;&#x2014;&#x2014;&#x2014;&#x2014;&#x2014;&#x2014;&#x2014;&#x2014;&#x2014;&#x2014;&#x2014;&#x2014;&#x2014;&#x2014;&#x2014;&#x2014;&#x2014;</tspan></text>
<text xml:space="preserve" transform="matrix(1 0 -0 1 61.03784 655.43899)" font-size="11" font-family="TimesNewRomanPSMT"><tspan y="0" x="489.9243"> </tspan></text>
</g>
<g id="Layer-1" data-name="P">
<g id="Layer-2" data-name="P">
<text fill="#404040" xml:space="preserve" transform="matrix(1 0 -0 1 54 679.439)" font-size="11" font-family="TimesNewRomanPS" font-weight="bold"><tspan y="0" x="0 7.337001 12.837001 18.9552 24.4552 28.1182 36.0624 40.9442 46.4442 52.5624 54.7052 62.649404 71.8124 77.930599 80.9864 84.0422 88.924 94.424 100.5422 103.2922 111.2364 116.1182 122.2364 127.7364 130.7922 135.07341 138.12921 144.2474 149.7474 152.4974 163.4974">Long-Read Amplicon Denoising &#x2014; </tspan></text>
</g>
<g id="Layer-2" data-name="P">
<text xml:space="preserve" transform="matrix(1 0 -0 1 54 679.439)" font-size="11" font-family="TimesNewRomanPS" font-style="italic"><tspan y="0" x="166.2461 173.5831 179.0831 183.9649 187.0207 191.90251 194.95832 199.84012 202.39102 209.10982 213.99163 217.04743 222.54743 226.82863 229.57863 236.29743 241.17923 245.46044 250.34224 255.84224 259.71534 264.59715 270.09715 272.84715 276.51014 280.17314 286.89195 290.55494 293.30494 297.98875 303.48875 306.23875 311.73875 317.23875 322.73875 326.40174 359.99464 362.74464 365.49464 395.99433 398.74433 401.49433 404.24433 406.99433 409.74433 412.49433 415.24433 417.99433 420.74433 423.49433 426.24433 428.99433 431.74433 431.99403 434.74403 437.49403 440.24403 442.99403 445.74403 448.49403">Nucleic Acids Research (IF: 11.147)                         </tspan></text>
</g>
<g id="Layer-2" data-name="P">
<text xml:space="preserve" transform="matrix(1 0 -0 1 54 679.439)" font-size="10" font-family="TimesNewRomanPS" font-style="italic"><tspan y="0" x="451.25 457.35798 462.35798 467.35798 472.35798 476.25 479.02799 481.52799 486.52799 491.52799 496.52799">August 2019</tspan></text>
</g>
<g id="Layer-2" data-name="P">
<text xml:space="preserve" transform="matrix(1 0 -0 1 54 679.439)" font-size="11" font-family="TimesNewRomanPS" font-weight="bold"><tspan y="0" x="501.5283"> </tspan></text>
</g>
</g>
<g id="Layer-1" data-name="P">
<g id="Layer-2" data-name="P">
<g id="Layer-3" data-name="P">
<text fill="#191919" xml:space="preserve" transform="matrix(1 0 -0 1 54 692.22268)" font-size="12" font-family="TimesNewRomanPS" font-style="italic"><tspan y="0" x="0">&#x2022;</tspan></text>
</g>
<g id="Layer-3" data-name="P">
<g id="Layer-4" data-name="P">
<text xml:space="preserve" transform="matrix(1 0 -0 1 64.90909 690.6978)" font-size="10" font-family="TimesNewRomanPSMT"><tspan y="0" x="0 5.5620005 10.000001 13.892001 16.67 18.618 25.840003 33.618005 38.618005 41.396005 44.174005 48.612009 53.612009 58.612009 61.112009 68.33401 72.77201 77.77201 82.77201 85.55001 89.44201 92.22001 97.22001 102.22001 104.72001 108.05001 112.86901 120.09101 127.31301 130.643 133.143 137.58101 142.58101 147.58101 150.08101 156.751 161.751 166.751 171.751 175.643 178.421 180.369 187.591 195.369 200.369 203.147 205.925 210.363 215.363 220.363 222.863 230.085 234.52301 239.52301 244.52301 247.30101 251.19301 253.97101 258.971 263.971 266.471 269.801 276.471 283.69303 290.91505 294.24504 296.74504 301.183 304.513 308.951 311.451 314.22898 322.00697 327.00697 329.78495 334.22294 342.00093 346.4389 351.4389 354.2169 358.65489 363.65489 366.15489 368.93287 373.93287 376.43287 379.21086 384.21086 388.64884 391.14884 395.04087 400.04087 402.81886 405.59684 410.03483 412.53483 416.42686 420.86485 423.64283 428.0808 433.0808 435.8588 438.63679 441.96678 444.74476 449.18275">Fast Amplicon Denoising (FAD) and Robust Amplicon Denoising (RAD) are implemented in the Julia scientific </tspan></text>
</g>
<g id="Layer-4" data-name="P">
<text xml:space="preserve" transform="matrix(1 0 -0 1 64.90909 701.69778)" font-size="10" font-family="TimesNewRomanPSMT"><tspan y="0" x="0 4.4380009 9.438001 17.216002 22.216002 27.216002 29.994002 32.772005 37.772005 42.772005 45.272005 48.050004 52.488008 57.488008 62.488008 67.48801 71.92601 76.92601 81.36401 83.86401 86.36401 90.80202 95.80202 100.80202 103.30202 107.74002 111.07002 115.508029 118.008029 121.33803 125.77603 128.55403 132.99204 137.43004 141.32204 145.76004 150.76004 153.26004 157.69805 160.47605 165.47605 170.47605 175.47605 177.97605 185.19805 187.97605 190.75405 195.75405 198.25405 202.69205 205.19205 209.63005 214.63005 222.40805 227.40805 230.18605 234.62406 237.40206 241.84006 244.34006 247.11806 252.11806 257.11805 259.89604 264.89604 267.674 270.452 272.952 277.952 281.28199 283.78199 287.11198 292.11198 297.11198 301.54997 304.32795 307.10594 312.10594 317.10594 320.99797 323.49797 326.27595 331.27595 335.71394 338.4919 340.9919 345.4299 348.2079 350.98588 355.98588 363.2079 365.7079 368.48588 373.48588 378.48588 383.48588 386.81587 390.14585 394.58384 399.02183 404.02183 406.52183 410.9598 418.7378 423.7378 426.51579 429.29377 433.73176 438.73176 443.73176 446.23176 450.12379 454.56178 459.56178 464.56178 468.99977 473.99977 478.43775 482.87574">computing language, and are released along with a complete toolkit of functions that allow long-read amplicon sequence </tspan></text>
</g>
<g id="Layer-4" data-name="P">
<text xml:space="preserve" transform="matrix(1 0 -0 1 64.90909 712.69778)" font-size="10" font-family="TimesNewRomanPSMT"><tspan y="0" x="0 4.4380009 9.438001 13.876001 16.654002 21.654002 25.546004 28.324004 32.216005 34.716005 39.716005 42.494005 47.494005 51.932008 54.710008 57.488008 62.488008 66.92601 70.81801 73.31801">analysis pipelines (</tspan></text>
</g>
<g id="Layer-4" data-name="P">
<text fill="#191919" xml:space="preserve" transform="matrix(1 0 -0 1 64.90909 712.69778)" font-size="10" font-family="TimesNewRomanPS" font-style="italic"><tspan y="0" x="76.65039 81.65039 84.42839 87.20639 92.20639 96.09839 99.42839 102.20639 104.98439 109.98439 114.42239 119.42239 124.42239 128.8604 136.0824 138.8604 143.2984 145.7984 150.7984 155.7984 160.7984 163.2984 167.7364 172.7364 179.9584 182.7364 187.7364 192.7364 196.6284 199.4064 204.4064 208.2984 211.0764 213.8544 218.2924 221.0704 225.5084 228.2864 233.2864 238.2864 241.0644 246.0644 251.0644 253.8424 258.2804 263.2804 268.2804 273.2804 276.05839 281.05839 286.05839 291.05839 296.05839 301.05839 306.05839">https://academic.oup.com/nar/article/47/18/e104/5550323</tspan></text>
</g>
<g id="Layer-4" data-name="P">
<text xml:space="preserve" transform="matrix(1 0 -0 1 64.90909 712.69778)" font-size="10" font-family="TimesNewRomanPS" font-style="italic"><tspan y="0" x="311.0645 314.3945">) </tspan></text>
</g>
</g>
</g>
</g>
<g id="Layer-1" data-name="P">
<text fill="#404040" xml:space="preserve" transform="matrix(1 0 -0 1 60.12695 727.9214)" font-size="11" font-family="TimesNewRomanPS" font-weight="bold" font-style="italic"><tspan y="0" x="0 11 22 33 44 55 66 77 88 99 110 121 132 143 154 165 176 187 198 209">&#x2014;&#x2014;&#x2014;&#x2014;&#x2014;&#x2014;&#x2014;&#x2014;&#x2014;&#x2014;&#x2014;&#x2014;&#x2014;&#x2014;&#x2014;&#x2014;&#x2014;&#x2014;&#x2014;&#x2014;</tspan></text>
<text xml:space="preserve" transform="matrix(1 0 -0 1 60.12695 727.9214)" font-size="13" font-family="TimesNewRomanPS" font-weight="bold" font-style="italic"><tspan y="0" x="220 223.25">  </tspan></text>
<text xml:space="preserve" transform="matrix(1 0 -0 1 60.12695 727.9214)" font-size="11" font-family="TimesNewRomanPS" font-weight="bold"><tspan y="0" x="226.5 232.6182 241.174 245.4552 252.7922 260.1292 266.2474 268.9974">SKILLS  </tspan></text>
<text fill="#404040" xml:space="preserve" transform="matrix(1 0 -0 1 60.12695 727.9214)" font-size="11" font-family="TimesNewRomanPS" font-weight="bold" font-style="italic"><tspan y="0" x="271.7461 282.7461 293.7461 304.7461 315.7461 326.7461 337.7461 348.7461 359.7461 370.7461 381.7461 392.7461 403.7461 414.7461 425.7461 436.7461 447.7461 458.7461 469.7461 480.7461">&#x2014;&#x2014;&#x2014;&#x2014;&#x2014;&#x2014;&#x2014;&#x2014;&#x2014;&#x2014;&#x2014;&#x2014;&#x2014;&#x2014;&#x2014;&#x2014;&#x2014;&#x2014;&#x2014;&#x2014;</tspan></text>
<text xml:space="preserve" transform="matrix(1 0 -0 1 60.12695 727.9214)" font-size="11" font-family="TimesNewRomanPS" font-weight="bold" font-style="italic"><tspan y="0" x="491.7461"> </tspan></text>
</g>
<g id="Layer-1" data-name="P">
<g id="Layer-2" data-name="P">
<g id="Layer-3" data-name="P">
<g id="Layer-4" data-name="P">
<text xml:space="preserve" transform="matrix(1 0 -0 1 54 741.43899)" font-size="11" font-family="TimesNewRomanPSMT"><tspan y="0" x="0">&#x2022;</tspan></text>
</g>
<g id="Layer-4" data-name="P">
<text xml:space="preserve" transform="matrix(1 0 -0 1 66.24 740.43899)" font-size="11" font-family="TimesNewRomanPS" font-weight="bold"><tspan y="0" x="0 6.327201 11.209001 16.090802 22.209002 28.327202 31.383004 36.2648 41.7648">Technical</tspan></text>
<text xml:space="preserve" transform="matrix(1 0 -0 1 66.24 740.43899)" font-size="11" font-family="TimesNewRomanPSMT"><tspan y="0" x="44.82178 47.87758 50.62758 54.90878 59.790578 65.29057 70.17238 72.92238 75.67238 83.00938 85.75938 88.50938 95.846378 102.05038 108.25438 111.00438 113.75438 119.872577 125.372577 128.42838 133.92838 139.42838 144.92838 147.67838 149.82118 156.88428 167.26609 173.38428 176.13428 178.88428 185.00247 188.05828 191.72127 196.60308 202.10308 206.98488 211.26609 216.14789 218.89789 221.64789 229.59209 232.64789 235.70369 238.45369 241.20369 248.5407 253.4225 257.7037 263.2037 265.9537 268.7037 272.9849 278.4849 281.5407 284.59654 289.47834 292.22834 294.97834 299.25953 304.14134 309.64134 314.52314 318.80433 323.68614 327.34913 330.40495 335.90495 338.96076 341.71076 344.46076 351.79777 356.67958 361.56138 366.44319 369.499 372.249 374.7999 380.75093 386.25093 391.75093 396.63273 400.9139 405.79573 409.4587 412.51454 418.01454 421.07035 423.82035 426.57035 433.90736 440.02555 446.14375 448.89375 451.64375 458.98075 462.03657 467.53657 470.59239 476.09239 479.75538 484.63719 487.38719">: Java, C, C++, Python, AWS, Firebase, Git, Bash, Julia, Javascript, React, Typescript, CSS, Clojure, </tspan></text>
<text xml:space="preserve" transform="matrix(1 0 -0 1 66.24 752.43899)" font-size="11" font-family="TimesNewRomanPSMT"><tspan y="0" x="0 7.944201 11.607201 16.489003 21.989003 27.489003 35.433206">GraphQL</tspan></text>
</g>
</g>
</g>
</g>
</g>
</g>
</svg>
