<?xml version="1.0" standalone="no"?>
<!DOCTYPE svg PUBLIC "-//W3C//DTD SVG 20010904//EN"
 "http://www.w3.org/TR/2001/REC-SVG-20010904/DTD/svg10.dtd">
<svg version="1.0" xmlns="http://www.w3.org/2000/svg"
 width="1275.000000pt" height="1650.000000pt" viewBox="0 0 1275.000000 1650.000000"
 preserveAspectRatio="xMidYMid meet">
<metadata>
Created by potrace 1.16, written by Peter Selinger 2001-2019
</metadata>
<g transform="translate(0.000000,1650.000000) scale(0.100000,-0.100000)"
fill="#000000" stroke="none">
<path d="M5793 15819 c-86 -25 -101 -156 -23 -202 61 -36 151 -12 176 48 18
44 18 59 -2 100 -22 47 -91 72 -151 54z m100 -28 c21 -20 32 -79 23 -116 -17
-66 -96 -89 -135 -39 -23 30 -29 110 -10 145 21 41 85 46 122 10z"/>
<path d="M6240 15730 c-48 -114 -70 -142 -70 -89 l0 34 -20 -32 c-17 -28 -25
-33 -60 -33 l-40 0 0 99 c0 86 2 100 18 104 9 3 -8 5 -38 5 -30 0 -47 -2 -37
-5 15 -4 17 -17 17 -98 0 -79 -3 -96 -17 -104 -13 -7 20 -10 116 -11 112 0
132 2 117 13 -14 10 -15 18 -7 40 9 24 16 27 54 27 38 0 44 -3 54 -30 9 -25 9
-32 -5 -40 -13 -7 -4 -9 32 -10 42 0 47 2 34 13 -9 6 -35 58 -58 115 -24 56
-44 102 -45 102 -2 0 -22 -45 -45 -100z"/>
<path d="M7015 15820 c-22 -4 -32 -8 -22 -9 15 -1 17 -13 17 -96 0 -79 -3 -96
-17 -105 -14 -8 1 -10 60 -8 64 3 82 7 93 23 22 29 17 63 -11 81 -25 17 -25
17 -5 31 11 8 20 22 20 32 0 23 -31 51 -55 51 -18 0 -18 -1 -1 -13 27 -20 18
-70 -14 -77 l-25 -6 30 -15 c25 -12 30 -20 30 -48 0 -37 -22 -58 -49 -48 -15
6 -17 20 -14 112 2 58 3 104 3 104 0 -1 -18 -5 -40 -9z"/>
<path d="M7234 15739 c-21 -50 -46 -102 -57 -115 l-18 -24 37 0 c33 0 36 2 20
13 -14 10 -15 18 -7 40 9 24 16 27 54 27 38 0 44 -3 54 -30 9 -25 9 -32 -5
-40 -13 -7 -4 -9 32 -10 42 0 47 2 34 13 -9 6 -35 58 -58 115 -24 56 -44 102
-45 102 -2 0 -20 -41 -41 -91z"/>
<path d="M7624 15739 c-21 -50 -46 -102 -57 -115 l-18 -24 37 0 c33 0 36 2 20
13 -14 10 -15 18 -7 40 9 24 16 27 54 27 38 0 44 -3 54 -30 9 -25 9 -32 -5
-40 -13 -7 -4 -9 32 -10 42 0 47 2 34 13 -9 6 -35 58 -58 115 -24 56 -44 102
-45 102 -2 0 -20 -41 -41 -91z"/>
<path d="M8004 15739 c-21 -50 -46 -102 -57 -115 l-18 -24 37 0 c33 0 36 2 20
13 -14 10 -15 18 -7 40 9 24 16 27 54 27 38 0 44 -3 54 -30 9 -25 9 -32 -5
-40 -13 -7 -4 -9 32 -10 42 0 47 2 34 13 -9 6 -35 58 -58 115 -24 56 -44 102
-45 102 -2 0 -20 -41 -41 -91z"/>
<path d="M5453 15813 c15 -4 17 -17 17 -98 0 -79 -3 -96 -17 -104 -14 -8 -5
-10 37 -10 42 0 51 2 38 10 -13 7 -18 23 -18 54 l0 45 55 0 55 0 0 -45 c0 -31
-5 -47 -17 -54 -14 -8 -5 -10 37 -10 30 0 48 3 40 6 -26 10 -30 25 -30 110 0
68 3 84 18 92 13 8 5 10 -33 10 -27 -1 -42 -3 -32 -6 13 -3 17 -15 17 -49 l0
-44 -55 0 -55 0 0 44 c0 34 4 46 18 49 9 3 -8 5 -38 5 -30 0 -47 -2 -37 -5z"/>
<path d="M6765 15388 c-77 -42 -51 -148 37 -148 87 0 108 121 27 149 -38 13
-39 13 -64 -1z"/>
<path d="M5848 15324 c3 -48 0 -69 -10 -75 -8 -6 6 -9 38 -9 67 0 104 27 104
76 0 50 -29 74 -87 74 l-48 0 3 -66z"/>
<path d="M2288 15293 c600 -2 1584 -2 2185 0 600 1 109 2 -1093 2 -1202 0
-1693 -1 -1092 -2z"/>
<path d="M8278 15293 c600 -2 1584 -2 2185 0 600 1 109 2 -1093 2 -1202 0
-1693 -1 -1092 -2z"/>
<path d="M4018 15004 c3 -48 0 -69 -10 -75 -8 -6 6 -9 38 -9 67 0 104 27 104
76 0 50 -29 74 -87 74 l-48 0 3 -66z"/>
<path d="M5158 14473 c7 -3 12 -26 12 -63 0 -37 -5 -60 -12 -63 -7 -3 9 -6 35
-6 38 -1 53 4 72 24 30 29 32 64 5 93 -17 17 -32 22 -73 21 -29 0 -46 -3 -39
-6z"/>
<path d="M7096 14465 c-37 -37 -25 -110 20 -121 39 -10 71 3 84 35 21 51 -9
101 -60 101 -16 0 -35 -7 -44 -15z"/>
<path d="M7916 14465 c-37 -37 -25 -110 20 -121 39 -10 71 3 84 35 21 51 -9
101 -60 101 -16 0 -35 -7 -44 -15z"/>
<path d="M3032 14213 c-9 -4 -10 -8 -2 -18 6 -7 10 -35 8 -61 -2 -36 -7 -48
-21 -50 -21 -3 -35 41 -20 65 7 12 6 20 -2 28 -18 16 -23 0 -17 -58 l4 -46 42
-1 41 -1 -3 39 c-3 33 -1 40 13 40 14 0 16 -7 13 -40 l-4 -40 41 0 41 0 -4 40
c-3 33 -1 40 13 40 14 0 16 -7 13 -40 -3 -31 0 -40 12 -40 11 0 15 11 15 37 0
29 4 38 19 41 16 3 18 -1 14 -37 -3 -32 0 -41 12 -41 12 0 15 9 12 40 -5 46
-25 69 -46 51 -10 -8 -16 -9 -21 -1 -3 5 -22 8 -42 6 -33 -5 -59 -16 -35 -16
7 0 12 -15 12 -35 0 -53 -28 -47 -32 8 -3 36 -6 42 -25 41 -17 0 -23 5 -23 22
0 25 -9 34 -28 27z"/>
<path d="M8635 14140 l0 -70 43 0 c53 0 82 26 82 74 0 44 -29 66 -85 66 l-40
0 0 -70z"/>
<path d="M6250 13581 c0 -46 -4 -71 -12 -74 -7 -3 7 -6 32 -6 28 0 40 2 32 8
-8 5 -12 21 -10 37 l3 29 25 -37 c19 -29 32 -38 53 -38 26 0 27 1 13 16 -27
26 -41 57 -27 62 17 6 13 59 -5 66 -9 3 -36 6 -60 6 l-44 0 0 -69z"/>
<path d="M2238 13553 c600 -2 1584 -2 2185 0 600 1 109 2 -1093 2 -1202 0
-1693 -1 -1092 -2z"/>
<path d="M8328 13553 c600 -2 1584 -2 2185 0 600 1 109 2 -1093 2 -1202 0
-1693 -1 -1092 -2z"/>
<path d="M3058 13075 l-3 -75 37 0 c51 0 87 19 95 49 17 65 -10 101 -78 101
l-47 0 -4 -75z"/>
<path d="M2078 12584 c3 -48 0 -69 -10 -75 -8 -5 7 -9 40 -9 64 0 102 30 102
80 0 45 -31 70 -87 70 l-48 0 3 -66z"/>
<path d="M1365 12110 l0 -70 33 0 c35 0 72 15 84 34 14 21 8 66 -12 86 -14 14
-33 20 -62 20 l-43 0 0 -70z"/>
<path d="M1148 11174 c3 -48 0 -69 -10 -75 -15 -10 64 -12 99 -3 30 8 39 41
18 64 -11 12 -13 20 -6 25 16 10 13 42 -5 49 -9 3 -34 6 -57 6 l-42 0 3 -66z"/>
<path d="M1435 10460 l0 -70 33 0 c35 0 72 15 84 34 14 21 8 66 -12 86 -14 14
-33 20 -62 20 l-43 0 0 -70z"/>
<path d="M2608 9665 l-3 -75 37 0 c51 0 87 19 95 49 17 65 -10 101 -78 101
l-47 0 -4 -75z"/>
<path d="M1435 8940 l0 -70 33 0 c35 0 72 15 84 34 14 21 8 66 -12 86 -14 14
-33 20 -62 20 l-43 0 0 -70z"/>
<path d="M7345 8210 l0 -70 33 0 c35 0 72 15 84 34 14 21 8 66 -12 86 -14 14
-33 20 -62 20 l-43 0 0 -70z"/>
<path d="M6135 7748 c-77 -42 -51 -148 37 -148 87 0 108 121 27 149 -38 13
-39 13 -64 -1z"/>
<path d="M5938 7684 c3 -48 0 -69 -10 -75 -8 -6 4 -8 32 -8 25 0 39 3 33 6 -7
2 -13 19 -13 36 l0 32 27 -38 c18 -25 34 -37 50 -37 l24 0 -27 36 c-25 33 -26
37 -11 46 20 11 22 39 5 56 -7 7 -35 12 -62 12 l-51 0 3 -66z"/>
<path d="M2368 7653 c600 -2 1584 -2 2185 0 600 1 109 2 -1093 2 -1202 0
-1693 -1 -1092 -2z"/>
<path d="M8188 7653 c600 -2 1584 -2 2185 0 600 1 109 2 -1093 2 -1202 0
-1693 -1 -1092 -2z"/>
<path d="M2458 4834 c3 -48 0 -69 -10 -75 -8 -5 7 -9 40 -9 64 0 102 30 102
80 0 45 -31 70 -87 70 l-48 0 3 -66z"/>
<path d="M1395 4590 l0 -70 33 0 c35 0 72 15 84 34 14 21 8 66 -12 86 -14 14
-33 20 -62 20 l-43 0 0 -70z"/>
<path d="M1395 3240 l0 -70 33 0 c35 0 72 15 84 34 14 21 8 66 -12 86 -14 14
-33 20 -62 20 l-43 0 0 -70z"/>
<path d="M6820 2987 c-74 -38 -51 -147 32 -147 42 0 64 15 77 50 23 69 -45
130 -109 97z"/>
<path d="M5838 2924 c3 -48 0 -69 -10 -75 -19 -13 89 -11 113 1 23 13 24 37 2
62 -10 12 -12 18 -4 18 8 0 11 11 9 28 -3 25 -6 27 -58 30 l-55 3 3 -67z"/>
<path d="M2297 2893 c567 -2 1499 -2 2070 0 571 1 107 2 -1032 2 -1138 0
-1606 -1 -1038 -2z"/>
<path d="M8377 2893 c567 -2 1499 -2 2070 0 571 1 107 2 -1032 2 -1138 0
-1606 -1 -1038 -2z"/>
<path d="M3298 2424 c3 -48 0 -69 -10 -75 -8 -5 7 -9 40 -9 64 0 102 30 102
80 0 45 -31 70 -87 70 l-48 0 3 -66z"/>
<path d="M2638 2243 c7 -3 12 -26 12 -63 0 -37 -5 -60 -12 -63 -7 -3 9 -6 35
-6 38 -1 53 4 72 24 30 29 32 64 5 93 -17 17 -32 22 -73 21 -29 0 -46 -3 -39
-6z"/>
<path d="M3865 2180 l0 -70 43 0 c53 0 82 26 82 74 0 44 -29 66 -85 66 l-40 0
0 -70z"/>
<path d="M6008 2243 c7 -3 12 -26 12 -63 0 -37 -5 -60 -12 -63 -7 -3 9 -6 35
-6 38 -1 53 4 72 24 30 29 32 64 5 93 -17 17 -32 22 -73 21 -29 0 -46 -3 -39
-6z"/>
<path d="M6985 2180 c0 -68 1 -70 25 -70 19 0 21 3 12 12 -14 14 -16 48 -3 48
5 0 19 -13 31 -30 18 -25 28 -30 61 -30 22 0 38 4 35 9 -11 17 6 41 30 41 26
0 52 -35 31 -43 -6 -3 4 -6 23 -6 21 0 30 3 23 7 -7 4 -23 33 -35 64 -13 30
-27 56 -32 57 -5 2 -21 -25 -35 -58 -28 -70 -48 -77 -80 -32 -18 24 -19 30 -6
35 18 7 20 37 3 54 -7 7 -28 12 -47 12 l-36 0 0 -70z"/>
<path d="M7275 2180 l0 -70 43 0 c53 0 82 26 82 74 0 44 -29 66 -85 66 l-40 0
0 -70z"/>
<path d="M6118 1414 c3 -48 0 -69 -10 -75 -8 -6 4 -8 32 -8 25 0 39 3 33 6 -7
2 -13 19 -13 36 l0 32 24 -30 c13 -16 22 -33 19 -37 -2 -5 33 -8 79 -8 49 0
78 4 70 9 -10 6 -13 27 -10 75 3 65 2 66 -22 66 -25 0 -25 -1 -22 -71 4 -68 3
-71 -19 -67 -12 2 -36 20 -53 41 l-31 39 33 29 c25 22 28 29 15 29 -10 0 -24
-9 -30 -20 -7 -10 -22 -24 -34 -31 -20 -10 -21 -9 -17 20 4 28 2 31 -21 31
-26 0 -26 -1 -23 -66z"/>
<path d="M2398 1383 c635 -2 1670 -2 2300 0 631 1 112 2 -1153 2 -1265 0
-1781 -1 -1147 -2z"/>
<path d="M8058 1383 c635 -2 1670 -2 2300 0 631 1 112 2 -1153 2 -1265 0
-1781 -1 -1147 -2z"/>
<path d="M6428 1154 c3 -48 0 -69 -10 -76 -8 -5 9 -7 46 -6 47 2 61 7 73 25
12 18 12 23 0 34 -11 10 -12 19 -4 36 15 34 -6 53 -62 53 l-46 0 3 -66z"/>
<path d="M2003 970 c-40 -16 -58 -86 -30 -120 21 -26 92 -70 113 -69 17 0 16
1 -3 9 -29 12 -29 15 2 52 14 16 25 38 25 48 0 32 -21 67 -47 79 -28 13 -30
13 -60 1z"/>
</g>
</svg>
