<?xml version="1.0" standalone="no"?>
<!DOCTYPE svg PUBLIC "-//W3C//DTD SVG 20010904//EN"
 "http://www.w3.org/TR/2001/REC-SVG-20010904/DTD/svg10.dtd">
<svg version="1.0" xmlns="http://www.w3.org/2000/svg"
 width="2732.000000pt" height="2050.000000pt" viewBox="0 0 2732.000000 2050.000000"
 preserveAspectRatio="xMidYMid meet">

<g transform="translate(0.000000,2050.000000) scale(0.100000,-0.100000)"
fill="#000000" stroke="none">
<path d="M11018 17633 c6 -2 18 -2 25 0 6 3 1 5 -13 5 -14 0 -19 -2 -12 -5z"/>
<path d="M13398 17633 c7 -3 16 -2 19 1 4 3 -2 6 -13 5 -11 0 -14 -3 -6 -6z"/>
<path d="M10298 17473 c7 -3 16 -2 19 1 4 3 -2 6 -13 5 -11 0 -14 -3 -6 -6z"/>
<path d="M9998 17383 c7 -3 16 -2 19 1 4 3 -2 6 -13 5 -11 0 -14 -3 -6 -6z"/>
<path d="M9645 17260 c-3 -6 1 -7 9 -4 18 7 21 14 7 14 -6 0 -13 -4 -16 -10z"/>
<path d="M9350 17140 c-8 -5 -10 -10 -5 -10 6 0 17 5 25 10 8 5 11 10 5 10 -5
0 -17 -5 -25 -10z"/>
<path d="M15070 17140 c8 -5 20 -10 25 -10 6 0 3 5 -5 10 -8 5 -19 10 -25 10
-5 0 -3 -5 5 -10z"/>
<path d="M12635 17113 c-79 -10 -196 -38 -255 -60 -36 -13 -87 -31 -115 -40
-91 -28 -316 -158 -400 -230 -126 -109 -231 -214 -281 -279 -67 -90 -201 -187
-274 -199 -25 -4 -62 -14 -84 -21 -32 -12 -63 -12 -175 -3 -218 18 -478 -7
-656 -62 -102 -31 -394 -158 -596 -259 -256 -127 -404 -232 -585 -411 -62 -61
-124 -127 -136 -146 -13 -18 -34 -36 -48 -39 -58 -11 -99 -29 -175 -72 -89
-52 -149 -102 -176 -147 -16 -25 -32 -33 -106 -52 -131 -35 -178 -61 -284
-156 -104 -93 -129 -124 -129 -159 0 -12 -38 -93 -84 -179 l-85 -158 -35 -173
c-50 -247 -57 -296 -44 -317 8 -13 6 -41 -6 -108 -21 -114 -33 -290 -45 -659
-14 -397 5 -686 64 -994 51 -264 84 -478 91 -581 3 -59 12 -113 20 -126 8 -13
11 -30 6 -42 -4 -11 -2 -89 5 -173 6 -84 9 -165 6 -180 -6 -32 -27 -52 -68
-66 l-30 -10 49 -22 c29 -13 61 -20 81 -18 l33 4 -29 -33 c-16 -19 -37 -50
-48 -71 -17 -33 -61 -165 -61 -181 0 -3 21 31 45 76 78 141 191 223 371 269
150 38 315 28 442 -27 26 -12 85 -33 132 -49 111 -36 242 -97 327 -152 102
-66 104 -65 29 6 -116 112 -329 238 -404 240 -28 1 -39 6 -47 23 -18 41 -143
75 -285 76 -93 1 -94 1 -52 14 24 6 108 17 186 23 152 12 254 4 358 -27 56
-16 141 -68 174 -104 15 -18 7 -16 -42 11 -58 33 -100 36 -88 8 2 -7 54 -42
114 -77 78 -45 110 -69 112 -85 2 -13 10 -20 21 -19 19 1 62 -42 135 -132 50
-62 176 -195 166 -175 -4 8 -24 41 -45 72 -55 83 -23 60 41 -30 73 -102 140
-266 139 -342 0 -67 -21 -164 -33 -153 -5 4 -6 2 -2 -5 5 -7 5 -30 1 -50 -7
-34 -8 -35 -14 -12 -4 13 -7 -28 -6 -92 0 -64 4 -120 8 -124 4 -5 19 5 32 20
22 25 25 40 27 110 1 46 3 63 5 39 5 -58 19 -54 27 6 5 38 10 48 24 47 15 -1
17 8 14 77 -2 42 0 77 5 77 29 -1 31 -17 21 -195 -9 -164 -15 -200 -64 -408
-91 -381 -107 -473 -55 -317 16 47 58 157 94 245 35 88 68 169 72 180 6 17 11
11 32 -35 14 -30 41 -100 60 -155 l34 -100 -5 85 c-3 47 -17 128 -31 180 -59
214 -71 326 -38 362 13 14 15 35 11 110 -3 51 -2 82 3 68 4 -14 7 -59 8 -101
1 -74 21 -139 42 -139 8 0 14 47 10 73 0 4 3 7 9 7 5 0 10 -13 10 -30 0 -43
29 -41 32 3 1 26 2 24 7 -13 4 -30 11 -45 21 -45 16 0 16 -1 25 109 5 55 10
75 16 64 5 -9 5 -36 0 -64 -9 -48 -2 -72 17 -60 5 3 12 23 16 43 3 21 15 61
26 88 l20 50 -7 -45 c-3 -25 -11 -66 -18 -92 -9 -38 -9 -50 0 -58 20 -17 33
10 49 96 13 72 14 75 15 32 1 -46 15 -69 31 -52 5 5 12 102 16 216 5 158 10
208 20 212 10 4 12 23 9 73 -4 61 -4 64 6 31 8 -26 17 -38 29 -38 25 0 31 11
21 46 -5 20 -4 32 6 39 10 8 9 30 -10 119 -13 61 -29 112 -35 114 -8 2 -12 26
-12 63 0 33 -5 70 -11 81 -8 14 -8 23 0 31 8 8 11 8 11 -1 0 -7 8 -12 19 -12
19 0 31 25 31 67 0 12 7 26 15 30 10 6 17 39 23 122 6 70 14 116 21 121 10 6
9 29 -4 111 -15 101 -15 107 5 209 24 119 39 340 23 340 -14 0 -23 -35 -23
-95 -1 -27 -5 -68 -10 -90 -7 -33 -8 -24 -7 47 1 100 -10 123 -40 84 -15 -19
-23 -22 -32 -13 -8 8 -11 5 -11 -13 0 -14 -5 -32 -11 -40 -9 -13 -10 -12 -5 3
4 14 -1 17 -24 17 -41 0 -38 17 8 37 20 10 87 49 147 88 195 126 261 165 279
165 74 0 225 100 245 163 6 17 21 100 32 182 18 120 22 203 24 415 1 146 5
281 9 300 28 135 25 130 59 125 26 -4 27 -3 8 3 -39 12 -38 32 1 26 44 -8 107
10 149 41 19 14 59 37 89 51 80 38 154 76 160 84 25 32 187 120 221 120 13 0
46 11 73 25 57 29 96 31 216 11 127 -22 150 -28 144 -37 -3 -5 3 -9 13 -9 10
0 31 -7 47 -15 53 -28 81 -20 128 36 53 63 150 133 203 148 74 19 376 43 465
37 47 -4 207 -1 355 5 235 11 305 10 545 -5 162 -10 338 -27 430 -42 85 -13
196 -31 245 -39 93 -15 219 -58 291 -100 22 -13 56 -47 75 -74 19 -28 42 -51
51 -51 20 0 43 -32 52 -72 4 -19 13 -28 26 -28 11 0 30 -12 43 -27 12 -15 38
-43 58 -63 33 -31 69 -87 70 -107 0 -5 13 -23 30 -42 17 -19 40 -53 51 -75 11
-23 31 -56 45 -74 l25 -33 28 43 c47 73 161 168 201 168 20 0 148 79 169 105
8 10 39 34 70 55 77 53 194 180 229 248 71 141 186 493 233 712 30 141 32 368
4 450 -36 109 -168 301 -240 350 -41 29 -72 79 -81 135 -18 107 -39 149 -118
242 -89 105 -293 273 -331 273 -15 0 -40 19 -75 56 -41 44 -74 66 -157 106
-60 29 -122 51 -143 52 -21 1 -50 10 -64 19 -15 9 -38 17 -52 17 -21 0 -29 10
-56 68 -28 63 -47 85 -225 255 -106 103 -218 200 -246 217 -79 45 -227 85
-342 92 -35 2 -50 12 -123 84 -63 62 -105 93 -171 127 -118 61 -225 93 -266
80 -17 -6 -54 -11 -83 -12 -42 -1 -412 -63 -448 -75 -20 -7 -107 10 -410 80
-58 13 -99 15 -160 7z m2424 -983 c0 -10 -3 -8 -9 5 -12 27 -12 43 0 25 5 -8
9 -22 9 -30z m971 -2464 c0 -2 -8 -10 -17 -17 -16 -13 -17 -12 -4 4 13 16 21
21 21 13z m-5726 -1703 c-10 -29 -35 -83 -38 -83 -11 0 4 63 19 80 22 25 26
25 19 3z m-98 -88 c-3 -9 -11 -13 -17 -10 -9 6 -43 -28 -44 -45 -2 -18 -70
-121 -73 -111 -2 7 6 26 18 43 17 23 19 33 10 41 -16 17 -57 -32 -66 -78 -3
-19 -10 -35 -14 -35 -4 0 -5 -12 -2 -26 3 -18 1 -25 -6 -20 -6 3 -13 0 -16 -6
-4 -7 -3 3 0 22 4 19 9 51 13 70 7 40 42 90 65 94 8 1 20 7 28 13 7 6 19 13
26 15 8 2 27 16 44 31 32 29 45 29 34 2z m-19 -77 c-3 -8 -6 -5 -6 6 -1 11 2
17 5 13 3 -3 4 -12 1 -19z m163 -42 c0 -14 -4 -28 -10 -31 -6 -4 -10 7 -10 24
0 17 5 31 10 31 6 0 10 -11 10 -24z m-219 -13 c-5 -10 -9 -22 -9 -28 0 -5 -6
-11 -12 -13 -7 -3 -6 7 4 27 9 17 19 31 22 31 2 0 0 -8 -5 -17z m-211 -63 c0
-19 -36 -60 -52 -60 -16 0 -7 25 19 52 32 33 33 34 33 8z m315 -71 c-5 -41
-10 -57 -16 -48 -13 20 -11 93 3 107 18 18 21 8 13 -59z m-78 -76 c-2 -16 -4
-5 -4 22 0 28 2 40 4 28 2 -13 2 -35 0 -50z m-170 35 c-3 -8 -6 -5 -6 6 -1 11
2 17 5 13 3 -3 4 -12 1 -19z m-183 -40 c-4 -29 -12 -59 -18 -67 -6 -8 -17 -26
-24 -40 -11 -23 -12 -20 -7 28 5 48 37 131 51 131 2 0 2 -24 -2 -52z m503 10
c-3 -8 -6 -5 -6 6 -1 11 2 17 5 13 3 -3 4 -12 1 -19z m-412 -189 c-9 -107 -17
-201 -20 -209 -2 -8 -3 65 -2 162 1 128 5 187 15 213 8 20 16 34 19 32 2 -2
-3 -91 -12 -198z m105 85 c0 -54 -4 -83 -10 -79 -16 10 -10 165 6 165 2 0 4
-39 4 -86z m297 39 c-3 -10 -5 -2 -5 17 0 19 2 27 5 18 2 -10 2 -26 0 -35z
m-210 5 c-3 -8 -6 -5 -6 6 -1 11 2 17 5 13 3 -3 4 -12 1 -19z m163 -17 c0 -6
-4 -13 -10 -16 -5 -3 -10 1 -10 9 0 9 5 16 10 16 6 0 10 -4 10 -9z m-173 -108
c-2 -16 -4 -3 -4 27 0 30 2 43 4 28 2 -16 2 -40 0 -55z m168 -121 c-12 -111
-18 -58 -9 75 8 112 9 119 12 58 2 -38 0 -98 -3 -133z m-48 166 c-3 -8 -6 -5
-6 6 -1 11 2 17 5 13 3 -3 4 -12 1 -19z m-58 -35 c0 -25 -1 -26 -9 -8 -12 27
-12 35 0 35 6 0 10 -12 9 -27z m204 -10 c-3 -21 -9 -54 -14 -73 -6 -26 -7 -20
-3 25 3 33 6 66 7 73 0 6 4 12 8 12 4 0 5 -17 2 -37z m-653 -7 c0 -8 -4 -18
-10 -21 -5 -3 -11 -27 -12 -53 l-1 -47 -4 44 c-3 25 -2 55 2 68 6 25 25 32 25
9z m494 -206 c-11 -72 -20 -20 -12 68 3 42 8 93 9 112 2 19 5 -3 7 -50 2 -47
0 -105 -4 -130z m196 123 c-7 -43 -17 -85 -22 -93 -7 -11 -8 -8 -4 10 3 14 11
58 18 97 6 40 14 70 16 68 3 -3 -1 -40 -8 -82z m-413 -25 c-2 -13 -4 -5 -4 17
-1 22 1 32 4 23 2 -10 2 -28 0 -40z m350 -30 c-3 -7 -5 -2 -5 12 0 14 2 19 5
13 2 -7 2 -19 0 -25z m-240 -105 c-3 -10 -5 -4 -5 12 0 17 2 24 5 18 2 -7 2
-21 0 -30z m-172 -200 c7 -51 -9 -39 -37 25 -16 38 -22 65 -17 77 4 11 8 34 9
50 2 21 8 9 21 -45 11 -41 22 -90 24 -107z m465 105 c0 -25 -4 -38 -9 -32 -8
8 -4 74 5 74 2 0 4 -19 4 -42z m-708 -7 c3 -38 -3 -44 -30 -28 -10 7 -9 15 5
38 10 16 18 29 19 29 1 0 4 -17 6 -39z m587 -36 c0 -22 -9 -58 -20 -80 l-19
-40 6 55 c3 30 8 67 9 83 5 53 5 53 15 37 5 -8 9 -33 9 -55z m-245 -134 c3 -5
8 -29 11 -52 5 -41 5 -43 -11 -27 -21 21 -33 85 -32 173 l0 70 13 -77 c8 -43
16 -82 19 -87z m-67 97 c-3 -7 -5 -2 -5 12 0 14 2 19 5 13 2 -7 2 -19 0 -25z
m223 -28 c0 -33 -4 -60 -10 -60 -6 0 -10 27 -10 60 0 33 4 60 10 60 6 0 10
-27 10 -60z m-465 -118 c-7 -8 -67 60 -80 92 -7 16 -10 37 -7 48 3 14 16 0 48
-58 25 -42 42 -79 39 -82z m154 -12 c8 -38 8 -41 -6 -28 -8 8 -17 35 -19 59
-6 54 10 34 25 -31z m406 31 c-4 -17 -13 -34 -21 -39 -7 -4 -16 -23 -20 -42
-4 -26 -3 -31 5 -20 8 11 11 11 11 2 0 -17 -30 -75 -36 -69 -10 10 9 137 20
137 7 0 18 16 25 36 15 42 26 39 16 -5z m-285 -106 c14 -19 14 -19 -2 -6 -10
7 -18 18 -18 24 0 6 1 8 3 6 1 -2 9 -13 17 -24z m29 -58 c0 -21 -1 -21 -9 -2
-12 28 -12 37 0 30 6 -3 10 -16 9 -28z m290 -41 c-9 -8 -10 -7 -5 7 3 10 7 26
7 35 1 9 4 6 6 -7 3 -13 -1 -28 -8 -35z m-220 -36 c0 -9 -4 -8 -9 5 -5 11 -9
27 -9 35 0 9 4 8 9 -5 5 -11 9 -27 9 -35z m-81 -91 c-3 -20 -5 -19 -9 9 -3 20
-2 29 4 23 5 -5 7 -19 5 -32z m9 -61 c-3 -7 -5 -2 -5 12 0 14 2 19 5 13 2 -7
2 -19 0 -25z m153 2 c0 -11 -4 -20 -10 -20 -5 0 -10 9 -10 20 0 11 5 20 10 20
6 0 10 -9 10 -20z m-133 -42 c-3 -8 -6 -5 -6 6 -1 11 2 17 5 13 3 -3 4 -12 1
-19z m-97 -99 c0 -6 -4 -7 -10 -4 -5 3 -10 11 -10 16 0 6 5 7 10 4 6 -3 10
-11 10 -16z m237 -126 c-2 -16 -4 -5 -4 22 0 28 2 40 4 28 2 -13 2 -35 0 -50z
m-187 -138 c0 -19 -4 -35 -8 -35 -4 0 -6 16 -4 35 2 19 6 35 8 35 2 0 4 -16 4
-35z"/>
<path d="M15310 17030 c8 -5 20 -10 25 -10 6 0 3 5 -5 10 -8 5 -19 10 -25 10
-5 0 -3 -5 5 -10z"/>
<path d="M9070 17010 c-8 -5 -10 -10 -5 -10 6 0 17 5 25 10 8 5 11 10 5 10 -5
0 -17 -5 -25 -10z"/>
<path d="M15390 16990 c8 -5 20 -10 25 -10 6 0 3 5 -5 10 -8 5 -19 10 -25 10
-5 0 -3 -5 5 -10z"/>
<path d="M15540 16916 c0 -2 7 -7 16 -10 8 -3 12 -2 9 4 -6 10 -25 14 -25 6z"/>
<path d="M15580 16896 c0 -2 7 -7 16 -10 8 -3 12 -2 9 4 -6 10 -25 14 -25 6z"/>
<path d="M8675 16800 c-3 -6 1 -7 9 -4 18 7 21 14 7 14 -6 0 -13 -4 -16 -10z"/>
<path d="M15780 16786 c0 -3 9 -10 20 -16 11 -6 20 -8 20 -6 0 3 -9 10 -20 16
-11 6 -20 8 -20 6z"/>
<path d="M8590 16750 c-9 -6 -10 -10 -3 -10 6 0 15 5 18 10 8 12 4 12 -15 0z"/>
<path d="M15930 16696 c0 -3 9 -10 20 -16 11 -6 20 -8 20 -6 0 3 -9 10 -20 16
-11 6 -20 8 -20 6z"/>
<path d="M8434 16654 c-18 -14 -18 -15 4 -4 12 6 22 13 22 15 0 8 -5 6 -26
-11z"/>
<path d="M16020 16636 c0 -2 7 -7 16 -10 8 -3 12 -2 9 4 -6 10 -25 14 -25 6z"/>
<path d="M8354 16604 c-18 -14 -18 -15 4 -4 12 6 22 13 22 15 0 8 -5 6 -26
-11z"/>
<path d="M8300 16569 c-22 -18 -22 -19 -3 -10 12 6 25 16 28 21 9 15 3 12 -25
-11z"/>
<path d="M16120 16577 c0 -3 12 -12 26 -22 15 -9 23 -12 20 -6 -7 11 -46 35
-46 28z"/>
<path d="M8240 16530 c-9 -6 -10 -10 -3 -10 6 0 15 5 18 10 8 12 4 12 -15 0z"/>
<path d="M16180 16536 c0 -3 9 -10 20 -16 11 -6 20 -8 20 -6 0 3 -9 10 -20 16
-11 6 -20 8 -20 6z"/>
<path d="M8189 16493 c-13 -17 -13 -17 6 -3 11 8 22 16 24 17 2 2 0 3 -6 3 -6
0 -17 -8 -24 -17z"/>
<path d="M8059 16403 c-13 -16 -12 -17 4 -4 9 7 17 15 17 17 0 8 -8 3 -21 -13z"/>
<path d="M7970 16339 c-35 -31 -35 -31 -3 -9 18 11 35 25 38 30 10 16 2 11
-35 -21z"/>
<path d="M16421 16367 c2 -1 13 -9 24 -17 19 -14 19 -14 6 3 -7 9 -18 17 -24
17 -6 0 -8 -1 -6 -3z"/>
<path d="M16470 16337 c0 -3 17 -17 37 -33 20 -15 33 -23 29 -16 -8 13 -66 56
-66 49z"/>
<path d="M16560 16266 c0 -2 8 -10 18 -17 15 -13 16 -12 3 4 -13 16 -21 21
-21 13z"/>
<path d="M7819 16223 c-13 -16 -12 -17 4 -4 16 13 21 21 13 21 -2 0 -10 -8
-17 -17z"/>
<path d="M7750 16169 l-45 -41 48 37 c41 33 53 45 45 45 -2 0 -23 -18 -48 -41z"/>
<path d="M7614 16058 l-29 -33 33 29 c30 28 37 36 29 36 -2 0 -16 -15 -33 -32z"/>
<path d="M16819 16057 c15 -19 71 -61 71 -54 0 2 -19 19 -42 37 -24 19 -37 26
-29 17z"/>
<path d="M7554 16008 l-19 -23 23 19 c21 18 27 26 19 26 -2 0 -12 -10 -23 -22z"/>
<path d="M7474 15938 l-19 -23 23 19 c21 18 27 26 19 26 -2 0 -12 -10 -23 -22z"/>
<path d="M16950 15947 c0 -2 15 -16 33 -33 l32 -29 -29 33 c-28 30 -36 37 -36
29z"/>
<path d="M17085 15820 c27 -27 51 -50 54 -50 3 0 -17 23 -44 50 -27 28 -51 50
-54 50 -3 0 17 -22 44 -50z"/>
<path d="M7329 15803 l-34 -38 38 34 c20 19 37 36 37 38 0 8 -8 0 -41 -34z"/>
<path d="M7207 15689 c-37 -34 -66 -63 -63 -66 2 -2 34 25 71 61 37 36 66 66
64 66 -2 0 -35 -28 -72 -61z"/>
<path d="M17192 15721 c2 -8 15 -21 29 -30 19 -11 21 -12 9 0 -8 8 -21 21 -29
29 -11 12 -12 12 -9 1z"/>
<path d="M17265 15647 c10 -15 20 -25 23 -22 3 3 -5 16 -17 28 l-23 22 17 -28z"/>
<path d="M17300 15616 c0 -2 8 -10 18 -17 15 -13 16 -12 3 4 -13 16 -21 21
-21 13z"/>
<path d="M7085 15569 c-11 -16 -1 -19 13 -3 7 8 8 14 3 14 -5 0 -13 -5 -16
-11z"/>
<path d="M17350 15563 c0 -6 8 -17 18 -24 16 -13 16 -13 2 6 -8 11 -16 22 -17
24 -2 2 -3 0 -3 -6z"/>
<path d="M17390 15524 c0 -5 28 -36 63 -69 l62 -60 -60 65 c-33 35 -61 66 -62
69 -2 2 -3 0 -3 -5z"/>
<path d="M7004 15478 l-29 -33 33 29 c30 28 37 36 29 36 -2 0 -16 -15 -33 -32z"/>
<path d="M17555 15340 c21 -22 41 -40 44 -40 3 0 -13 18 -34 40 -21 22 -41 40
-44 40 -3 0 13 -18 34 -40z"/>
<path d="M6869 15333 l-34 -38 38 34 c20 19 37 36 37 38 0 8 -8 0 -41 -34z"/>
<path d="M6809 15263 l-24 -28 28 24 c15 14 27 26 27 28 0 8 -8 1 -31 -24z"/>
<path d="M17649 15235 c27 -33 60 -71 71 -85 l22 -25 -22 33 c-12 18 -44 56
-72 85 l-50 52 51 -60z"/>
<path d="M6656 15082 c-22 -27 -24 -32 -7 -17 20 17 47 55 39 55 -2 0 -16 -17
-32 -38z"/>
<path d="M6562 14964 c-18 -24 -31 -44 -28 -44 7 0 69 81 65 84 -2 2 -19 -16
-37 -40z"/>
<path d="M17850 14986 c0 -2 8 -10 18 -17 15 -13 16 -12 3 4 -13 16 -21 21
-21 13z"/>
<path d="M17880 14946 c0 -2 8 -10 18 -17 15 -13 16 -12 3 4 -13 16 -21 21
-21 13z"/>
<path d="M17940 14866 c0 -2 8 -10 18 -17 15 -13 16 -12 3 4 -13 16 -21 21
-21 13z"/>
<path d="M6449 14813 c-13 -16 -12 -17 4 -4 16 13 21 21 13 21 -2 0 -10 -8
-17 -17z"/>
<path d="M17970 14826 c0 -2 8 -10 18 -17 15 -13 16 -12 3 4 -13 16 -21 21
-21 13z"/>
<path d="M6419 14773 c-13 -16 -12 -17 4 -4 16 13 21 21 13 21 -2 0 -10 -8
-17 -17z"/>
<path d="M6380 14720 c-12 -16 -19 -30 -16 -30 2 0 14 14 26 30 12 17 19 30
16 30 -2 0 -14 -13 -26 -30z"/>
<path d="M18070 14690 c6 -11 13 -20 16 -20 2 0 0 9 -6 20 -6 11 -13 20 -16
20 -2 0 0 -9 6 -20z"/>
<path d="M6339 14663 c-13 -16 -12 -17 4 -4 16 13 21 21 13 21 -2 0 -10 -8
-17 -17z"/>
<path d="M6310 14620 c-6 -11 -8 -20 -6 -20 3 0 10 9 16 20 6 11 8 20 6 20 -3
0 -10 -9 -16 -20z"/>
<path d="M18167 14549 c10 -17 24 -36 32 -42 8 -7 2 7 -14 31 -32 49 -45 57
-18 11z"/>
<path d="M6210 14470 c-6 -11 -8 -20 -6 -20 3 0 10 9 16 20 6 11 8 20 6 20 -3
0 -10 -9 -16 -20z"/>
<path d="M18275 14383 c15 -24 30 -43 32 -43 7 0 -31 61 -46 73 -8 7 -2 -7 14
-30z"/>
<path d="M6097 14291 c-9 -16 -17 -33 -17 -38 0 -4 9 7 21 26 11 18 18 35 17
37 -2 2 -12 -10 -21 -25z"/>
<path d="M6056 14225 c-9 -26 -7 -32 5 -12 6 10 9 21 6 23 -2 3 -7 -2 -11 -11z"/>
<path d="M18380 14210 c6 -11 13 -20 16 -20 2 0 0 9 -6 20 -6 11 -13 20 -16
20 -2 0 0 -9 6 -20z"/>
<path d="M18420 14140 c6 -11 13 -20 16 -20 2 0 0 9 -6 20 -6 11 -13 20 -16
20 -2 0 0 -9 6 -20z"/>
<path d="M18460 14071 c0 -6 4 -13 10 -16 6 -3 7 1 4 9 -7 18 -14 21 -14 7z"/>
<path d="M5836 13825 c-9 -26 -7 -32 5 -12 6 10 9 21 6 23 -2 3 -7 -2 -11 -11z"/>
<path d="M18600 13810 c6 -11 13 -20 16 -20 2 0 0 9 -6 20 -6 11 -13 20 -16
20 -2 0 0 -9 6 -20z"/>
<path d="M12518 13748 c5 -5 16 -8 23 -6 8 3 3 7 -10 11 -17 4 -21 3 -13 -5z"/>
<path d="M18630 13755 c0 -5 5 -17 10 -25 5 -8 10 -10 10 -5 0 6 -5 17 -10 25
-5 8 -10 11 -10 5z"/>
<path d="M18696 13617 c3 -10 9 -15 12 -12 3 3 0 11 -7 18 -10 9 -11 8 -5 -6z"/>
<path d="M18710 13581 c0 -6 4 -13 10 -16 6 -3 7 1 4 9 -7 18 -14 21 -14 7z"/>
<path d="M5706 13555 c-9 -26 -7 -32 5 -12 6 10 9 21 6 23 -2 3 -7 -2 -11 -11z"/>
<path d="M11295 13476 c-16 -7 -41 -26 -55 -41 l-25 -27 40 27 c22 14 52 29
68 32 15 3 27 9 27 14 0 12 -20 11 -55 -5z"/>
<path d="M11158 13353 c-18 -45 -21 -191 -4 -248 l14 -50 1 37 c1 40 17 59 24
31 3 -10 3 9 0 42 -3 37 1 86 11 129 19 80 14 101 -7 30 -12 -42 -15 -46 -21
-26 -4 12 -5 36 -1 52 8 38 -2 39 -17 3z"/>
<path d="M11241 13354 c0 -11 3 -14 6 -6 3 7 2 16 -1 19 -3 4 -6 -2 -5 -13z"/>
<path d="M11250 13290 c-2 -32 -3 -33 -9 -10 -7 23 -8 21 -14 -15 -4 -22 -7
-93 -7 -157 0 -120 -17 -231 -66 -433 -13 -55 -24 -107 -24 -115 0 -16 36 44
76 128 15 29 28 52 29 50 5 -5 -15 -99 -25 -123 -13 -28 -30 -97 -30 -119 0
-25 42 54 64 121 9 28 21 105 25 170 l8 118 2 -94 c1 -105 9 -119 13 -23 1 34
6 62 10 62 4 0 8 30 9 68 0 37 4 76 9 87 9 20 17 -228 12 -355 -4 -92 -28
-204 -57 -261 -33 -64 -109 -121 -281 -209 -45 -22 -99 -57 -120 -76 l-39 -35
40 19 c22 11 87 34 145 52 111 34 260 106 260 126 0 6 21 61 46 120 72 172 93
274 60 287 -8 3 -17 21 -20 39 -8 51 -26 245 -30 326 -4 69 -35 236 -43 229
-2 -2 4 -50 13 -105 11 -69 13 -111 6 -129 -8 -25 -10 -22 -16 32 -9 72 -36
236 -41 250 -2 6 -4 -6 -5 -25z"/>
<path d="M5566 13225 c-9 -26 -7 -32 5 -12 6 10 9 21 6 23 -2 3 -7 -2 -11 -11z"/>
<path d="M18880 13185 c0 -5 5 -17 10 -25 5 -8 10 -10 10 -5 0 6 -5 17 -10 25
-5 8 -10 11 -10 5z"/>
<path d="M5521 13113 c-1 -6 -4 -20 -7 -30 -5 -17 -5 -17 6 0 6 10 9 23 6 30
-3 9 -5 9 -5 0z"/>
<path d="M11171 13008 c-13 -42 -62 -291 -57 -295 7 -7 44 93 55 147 10 50 21
180 15 180 -1 0 -7 -15 -13 -32z"/>
<path d="M15664 12865 c3 -11 13 -60 21 -110 26 -146 73 -352 110 -475 19 -63
48 -189 64 -280 39 -216 68 -311 143 -478 52 -117 64 -155 81 -257 19 -114 18
-235 -1 -235 -4 0 -21 26 -38 58 -41 77 -100 122 -160 122 -112 0 -199 -90
-335 -347 -65 -123 -63 -131 36 -108 57 14 80 14 139 5 111 -18 183 -39 232
-66 42 -24 47 -24 69 -10 13 9 34 30 47 48 13 18 44 60 69 93 93 126 92 219
-2 464 -86 222 -137 401 -193 681 -31 154 -78 316 -108 374 -19 36 -119 338
-143 433 -13 53 -27 98 -31 102 -3 3 -4 -3 0 -14z"/>
<path d="M11260 12633 c-7 -32 -23 -87 -36 -123 -17 -47 -20 -68 -12 -75 8 -7
9 -6 3 3 -4 7 0 21 7 30 24 28 49 102 55 164 3 32 3 58 1 58 -3 0 -11 -26 -18
-57z"/>
<path d="M11297 12631 c-5 -35 -6 -65 -3 -68 7 -7 18 80 14 108 -2 13 -7 -5
-11 -40z"/>
<path d="M5371 12664 c0 -11 3 -14 6 -6 3 7 2 16 -1 19 -3 4 -6 -2 -5 -13z"/>
<path d="M11109 12483 l-34 -38 38 34 c34 33 42 41 34 41 -2 0 -19 -17 -38
-37z"/>
<path d="M11250 12444 c-19 -36 -42 -72 -53 -79 -17 -12 -17 -13 1 -17 21 -6
61 50 82 115 19 60 8 52 -30 -19z"/>
<path d="M11113 12443 c-16 -21 -36 -49 -43 -63 -9 -19 -1 -14 32 17 24 24 44
52 44 63 0 11 -1 20 -1 20 -1 0 -15 -17 -32 -37z m27 3 c0 -2 -8 -10 -17 -17
-16 -13 -17 -12 -4 4 13 16 21 21 21 13z"/>
<path d="M11145 12359 c-34 -21 -50 -25 -39 -7 4 7 3 8 -5 4 -6 -4 -8 -12 -5
-18 5 -8 1 -9 -12 -4 -10 4 -15 4 -11 -1 4 -4 -7 -15 -25 -25 -18 -9 -27 -17
-20 -18 20 0 120 51 138 72 21 22 17 22 -21 -3z"/>
<path d="M10992 12324 c-12 -8 -27 -25 -33 -37 -8 -16 -1 -12 25 12 33 32 40
41 33 41 -1 0 -13 -7 -25 -16z"/>
<path d="M10968 12233 c18 -2 45 -2 60 0 15 2 0 4 -33 4 -33 0 -45 -2 -27 -4z"/>
<path d="M19201 12134 c0 -11 3 -14 6 -6 3 7 2 16 -1 19 -3 4 -6 -2 -5 -13z"/>
<path d="M5175 11859 c-4 -6 -5 -12 -2 -15 2 -3 7 2 10 11 7 17 1 20 -8 4z"/>
<path d="M13095 11753 c-78 -21 -279 -103 -504 -205 -229 -104 -279 -123 -324
-127 -5 -1 -5 -6 -1 -13 4 -7 3 -8 -4 -4 -20 12 -364 -206 -370 -234 -3 -12
-1 -13 9 -2 15 14 33 16 25 3 -4 -5 18 4 46 20 100 55 89 33 -22 -45 -44 -31
-80 -63 -80 -71 0 -8 3 -15 8 -15 12 0 104 64 140 98 18 17 50 41 70 53 29 17
22 6 -38 -53 l-76 -76 38 0 c21 -1 45 6 53 15 9 8 57 26 108 40 51 13 157 41
237 63 l146 39 359 13 c429 15 467 15 885 -12 l325 -21 110 -39 c61 -22 137
-47 170 -56 89 -25 252 -109 260 -135 6 -19 106 -92 143 -104 10 -3 25 -19 35
-36 17 -31 18 -31 75 -24 64 8 74 14 111 69 14 21 33 50 42 63 11 16 18 59 23
134 8 121 0 149 -49 171 -13 6 -35 32 -50 59 -26 48 -80 99 -104 99 -7 0 -36
20 -63 45 -62 56 -83 59 -34 5 20 -22 36 -45 36 -50 0 -19 -33 -10 -67 20 -37
33 -114 75 -177 96 l-41 14 65 -62 c76 -71 66 -66 -48 25 -45 37 -85 67 -88
67 -3 0 3 -12 14 -27 38 -56 39 -54 -35 -48 -80 8 -78 4 51 -61 91 -47 169
-94 163 -100 -10 -10 -135 31 -166 54 -102 80 -276 164 -542 263 -233 86 -260
90 -574 94 -148 2 -279 1 -290 -2z m-258 -259 c-3 -3 -12 -4 -19 -1 -8 3 -5 6
6 6 11 1 17 -2 13 -5z m-57 -14 c-14 -4 -34 -8 -45 -8 -16 0 -15 2 5 8 14 4
34 8 45 8 16 0 15 -2 -5 -8z m-323 -101 c-9 -6 -15 -14 -13 -18 3 -4 0 -8 -7
-8 -7 -1 -39 -10 -71 -22 -85 -30 -82 -25 9 20 73 35 125 53 82 28z m951 -16
c-15 -2 -42 -2 -60 0 -18 2 -6 4 27 4 33 0 48 -2 33 -4z m1337 -11 c5 0 11 -6
13 -12 3 -7 -7 -6 -27 4 -17 9 -31 19 -31 22 0 2 8 0 18 -5 9 -5 21 -9 27 -9z
m-2495 -67 c-7 -8 -18 -15 -24 -15 -6 0 -2 7 8 15 25 19 32 19 16 0z m75 -31
c-39 -26 -112 -64 -164 -85 -52 -22 -106 -46 -119 -55 -49 -32 -30 -5 40 57
102 90 105 92 141 95 18 2 59 10 92 18 33 8 64 15 70 15 5 1 -22 -20 -60 -45z
m2354 -190 c14 -13 -12 -13 -40 0 l-34 16 35 -6 c19 -4 37 -8 39 -10z m201
-75 c0 -6 -4 -7 -10 -4 -5 3 -10 11 -10 16 0 6 5 7 10 4 6 -3 10 -11 10 -16z"/>
<path d="M5091 11234 c0 -11 3 -14 6 -6 3 7 2 16 -1 19 -3 4 -6 -2 -5 -13z"/>
<path d="M19341 11234 c0 -11 3 -14 6 -6 3 7 2 16 -1 19 -3 4 -6 -2 -5 -13z"/>
<path d="M12700 11223 c-218 -24 -284 -34 -334 -52 -32 -11 -62 -18 -66 -16
-9 6 -137 -37 -176 -59 -26 -15 -27 -16 -4 -10 14 4 52 17 85 29 96 36 102 37
70 19 -68 -38 -255 -158 -251 -161 4 -4 94 31 271 105 66 28 183 67 259 87
119 31 223 65 191 63 -5 -1 -26 -3 -45 -5z"/>
<path d="M12395 11079 c-38 -4 -88 -15 -110 -24 -22 -8 -29 -13 -15 -11 14 3
74 12 135 21 159 23 152 33 -10 14z"/>
<path d="M13945 11023 c-9 -62 -28 -106 -65 -153 -25 -31 -28 -40 -16 -49 11
-9 20 -4 45 26 38 46 61 112 61 175 0 62 -16 62 -25 1z"/>
<path d="M13650 10979 c0 -39 -4 -79 -10 -89 -10 -19 -4 -50 10 -50 16 0 30
90 24 149 -9 83 -24 77 -24 -10z"/>
<path d="M13836 11043 c-3 -3 -6 -23 -6 -43 0 -20 -7 -58 -16 -84 -16 -46 -15
-64 4 -52 16 10 42 96 42 137 0 37 -10 55 -24 42z"/>
<path d="M13540 11030 c0 -6 8 -22 17 -36 14 -23 15 -34 5 -81 -12 -60 -9 -75
13 -67 39 15 39 131 -1 175 -19 21 -34 25 -34 9z"/>
<path d="M13743 10996 c4 -28 1 -63 -8 -93 -19 -61 -19 -63 3 -63 26 0 42 41
42 106 0 57 -12 94 -32 94 -7 0 -9 -15 -5 -44z"/>
<path d="M13482 11018 c-21 -21 -7 -138 18 -153 24 -15 28 9 9 53 -13 30 -19
59 -15 80 5 36 5 37 -12 20z"/>
<path d="M14040 11003 c0 -28 -44 -116 -77 -154 -17 -19 -28 -40 -26 -47 5
-14 78 76 95 118 18 44 26 90 17 96 -5 3 -9 -3 -9 -13z"/>
<path d="M13378 10983 c-5 -98 28 -184 66 -170 15 6 15 10 -6 37 -16 22 -23
48 -26 95 -3 47 -8 65 -18 65 -8 0 -15 -12 -16 -27z"/>
<path d="M13303 10924 c3 -34 13 -55 36 -77 38 -39 52 -28 17 13 -14 18 -29
49 -32 71 -9 56 -28 50 -21 -7z"/>
<path d="M14101 10927 c-9 -32 -31 -67 -63 -102 -65 -72 -65 -105 1 -49 51 42
83 106 79 156 l-3 43 -14 -48z"/>
<path d="M8424 10951 c-51 -13 -136 -63 -185 -111 -41 -40 -48 -53 -60 -115
-17 -89 -17 -276 0 -335 l14 -45 17 85 c18 88 59 202 91 257 15 24 36 37 94
58 l75 28 88 -34 c48 -18 110 -45 137 -60 50 -27 115 -46 115 -34 0 4 -19 43
-41 86 -46 88 -108 146 -213 199 -61 31 -78 33 -132 21z"/>
<path d="M13224 10946 c-17 -45 22 -123 77 -151 26 -14 29 -14 29 0 0 9 -16
29 -35 46 -25 22 -37 43 -41 70 -7 43 -21 59 -30 35z"/>
<path d="M14172 10893 c-10 -37 -27 -68 -59 -103 -25 -27 -41 -50 -35 -50 5 0
27 20 49 43 42 46 67 101 61 139 -2 16 -7 6 -16 -29z"/>
<path d="M13171 10893 c-1 -33 5 -50 27 -74 16 -18 34 -30 42 -27 9 3 4 14
-18 39 -17 19 -35 50 -40 69 l-10 35 -1 -42z"/>
<path d="M13090 10880 c0 -50 55 -130 80 -115 7 4 0 19 -20 41 -19 22 -30 46
-30 64 0 20 -5 30 -15 30 -8 0 -15 -9 -15 -20z"/>
<path d="M14250 10882 c0 -44 -128 -192 -166 -192 -8 0 -14 -4 -14 -10 0 -31
114 32 154 85 29 38 59 118 49 129 -12 12 -23 6 -23 -12z"/>
<path d="M13031 10851 c11 -30 49 -72 49 -53 0 16 -41 82 -50 82 -5 0 -4 -13
1 -29z"/>
<path d="M12974 10856 c-7 -20 13 -81 32 -97 22 -18 28 -4 10 23 -9 12 -16 35
-16 50 0 31 -17 47 -26 24z"/>
<path d="M12910 10835 c0 -33 72 -106 84 -86 3 5 -6 16 -20 25 -13 10 -30 28
-36 42 -10 21 -28 33 -28 19z"/>
<path d="M12840 10795 c0 -34 61 -85 104 -85 28 0 17 19 -18 34 -19 8 -39 24
-46 35 -9 18 -40 30 -40 16z"/>
<path d="M8845 10670 c8 -56 40 -127 106 -238 76 -127 77 -131 13 -47 -21 28
-55 79 -76 115 -43 73 -47 67 -18 -20 19 -58 50 -112 138 -249 23 -35 42 -68
42 -72 0 -4 -10 -11 -22 -15 -13 -4 -41 -20 -63 -35 l-40 -29 -150 2 c-171 3
-187 -1 -249 -74 -69 -80 -86 -232 -38 -341 21 -48 114 -147 139 -147 17 0 17
4 -7 42 -28 46 -25 55 13 50 17 -2 59 1 92 6 47 8 64 7 81 -5 73 -47 137 -35
229 43 71 60 95 97 95 142 0 29 21 58 33 45 4 -3 7 -19 7 -35 0 -54 19 -27 50
72 85 269 39 408 -213 634 -65 59 -119 118 -138 149 l-30 52 6 -45z m245 -515
c0 -5 -5 -3 -10 5 -5 8 -10 20 -10 25 0 6 5 3 10 -5 5 -8 10 -19 10 -25z
m-326 -115 c-84 -64 -124 -91 -124 -82 0 4 5 13 12 20 28 28 -12 9 -50 -24
-28 -23 -40 -29 -35 -17 13 34 41 74 61 89 23 16 115 42 151 43 22 1 20 -2
-15 -29z"/>
<path d="M7986 10610 c-47 -104 -77 -243 -83 -375 -4 -103 -1 -144 25 -295 17
-96 33 -197 37 -225 11 -81 104 -395 137 -459 78 -156 181 -252 450 -419 101
-63 129 -97 200 -243 32 -67 65 -128 74 -134 13 -11 13 -10 5 13 -6 14 -21 76
-35 136 -27 122 -61 199 -109 250 -18 18 -84 77 -147 130 -179 150 -243 221
-294 326 -24 50 -51 120 -60 158 -9 37 -30 104 -46 150 -17 45 -37 109 -45
142 -7 33 -37 134 -65 225 -66 214 -77 295 -62 446 7 64 21 142 32 173 10 30
17 57 16 59 -2 1 -15 -25 -30 -58z"/>
<path d="M9590 10627 c0 -13 73 -198 77 -194 2 3 -9 41 -26 85 -28 78 -50 125
-51 109z"/>
<path d="M15366 10589 c-20 -17 -50 -61 -68 -97 -32 -65 -33 -71 -32 -187 1
-117 2 -123 47 -243 64 -168 123 -293 222 -473 47 -85 101 -193 120 -242 20
-49 57 -134 84 -190 72 -150 236 -541 261 -622 19 -64 39 -214 40 -307 0 -78
-155 -211 -328 -281 -35 -14 -117 -38 -183 -52 l-120 -26 -67 36 c-55 29 -61
31 -37 10 17 -14 46 -30 65 -37 l35 -12 -50 -12 c-42 -9 -53 -9 -68 4 -16 14
-17 14 -11 -1 5 -14 -1 -17 -32 -18 l-39 -1 44 -9 c42 -8 65 -25 56 -39 -2 -4
-1 -30 4 -58 5 -32 4 -52 -1 -52 -6 0 -12 9 -15 21 -3 11 -9 16 -12 11 -4 -6
-29 -4 -70 6 -54 13 -74 13 -141 3 -43 -7 -84 -10 -92 -5 -10 6 -10 4 1 -9 11
-14 11 -17 0 -17 -8 0 -32 -12 -52 -26 -21 -14 -40 -24 -42 -22 -1 1 -12 21
-24 43 l-21 40 2 -63 c1 -67 -3 -77 -42 -86 -22 -5 -29 1 -55 46 -36 62 -58
75 -45 26 20 -78 21 -105 5 -112 -11 -4 -14 -2 -9 6 8 13 -12 3 -39 -21 -17
-14 -21 -12 -58 29 l-39 45 5 -70 c4 -60 3 -65 -6 -35 -17 57 -25 55 -38 -8
-8 -40 -17 -62 -29 -67 -9 -3 -18 -1 -20 4 -5 16 -22 13 -22 -2 0 -28 -192
-69 -355 -78 -82 -4 -202 -17 -265 -30 -86 -16 -145 -21 -235 -20 -81 2 -146
-3 -200 -14 -102 -22 -95 -20 -130 -34 -16 -6 -43 -17 -60 -23 -42 -16 -93
-66 -105 -104 -8 -23 -8 -44 -1 -70 8 -30 7 -41 -4 -54 -8 -9 -20 -32 -26 -51
-7 -19 -33 -59 -59 -89 -25 -30 -97 -122 -160 -205 -62 -82 -133 -174 -157
-203 l-43 -54 0 114 c0 118 -6 138 -42 138 -10 0 -18 5 -18 10 0 14 -35 12
-75 -4 l-35 -15 0 35 c0 42 -15 74 -35 74 -14 0 -22 37 -27 125 -3 35 -6 40
-28 40 -20 0 -26 -7 -33 -36 l-8 -37 -42 10 c-23 5 -52 7 -64 3 -18 -4 -24 0
-29 20 -3 14 -3 36 0 50 9 34 -19 75 -50 75 -18 0 -27 -10 -41 -41 l-18 -42
-32 84 -32 84 14 85 c8 47 10 89 6 93 -18 18 -45 2 -53 -31 -4 -17 -12 -47
-17 -64 -8 -30 -9 -29 -8 17 2 40 -1 50 -15 53 -17 3 -20 -2 -44 -68 -3 -10
-15 5 -32 40 -20 41 -40 64 -79 90 -48 32 -53 38 -53 73 0 30 -5 40 -24 48
-16 8 -29 8 -43 1 -30 -16 -93 55 -124 138 -40 111 -97 235 -114 245 -10 7
-21 6 -36 -3 -25 -16 -12 -28 -135 123 -197 241 -262 336 -371 540 -94 179
-144 315 -182 499 -11 49 -23 91 -28 95 -17 10 -29 41 -72 173 -31 92 -47 129
-61 133 -20 6 -29 22 -40 75 -4 19 -15 68 -24 109 -9 40 -32 108 -50 151 -48
107 -53 141 -27 164 12 11 21 27 21 36 0 36 56 53 100 30 19 -10 50 -4 50 10
0 4 -12 16 -27 26 -29 19 -143 30 -143 14 0 -5 -9 -11 -20 -15 -45 -14 -62
-60 -86 -227 -12 -88 -24 -162 -27 -165 -11 -10 -38 46 -58 117 -22 80 -40
120 -62 139 -10 8 -8 -1 5 -29 29 -58 33 -174 14 -377 -16 -166 -60 -491 -68
-498 -2 -2 -23 20 -47 50 -23 31 -60 65 -82 78 -44 25 -47 41 -24 107 23 65
11 59 -18 -10 -20 -45 -31 -60 -47 -60 -36 0 -86 -27 -108 -58 -14 -18 -26
-59 -33 -108 -8 -54 -21 -92 -41 -125 -28 -44 -31 -58 -44 -221 -18 -220 -7
-395 28 -430 21 -21 21 -24 15 -312 -4 -160 -11 -322 -17 -361 -6 -38 -12
-178 -12 -310 -1 -269 -7 -234 98 -560 146 -452 236 -668 341 -828 35 -53 62
-79 122 -119 125 -85 201 -151 298 -260 136 -153 308 -317 391 -372 41 -27
144 -85 230 -130 87 -45 185 -100 218 -123 34 -23 84 -47 110 -54 62 -15 474
-214 494 -238 9 -11 56 -30 110 -46 52 -14 129 -37 170 -50 113 -36 278 -56
550 -65 140 -5 288 -16 345 -25 169 -28 278 -21 625 40 80 14 184 39 232 55
63 21 105 29 151 28 35 0 86 5 114 11 47 11 52 15 51 40 -1 28 101 226 137
265 51 56 79 177 70 306 -4 52 -11 103 -16 113 -6 9 -12 46 -16 81 -6 67 -1
78 53 114 17 12 17 12 -8 9 -24 -4 -28 -1 -28 22 0 21 -2 23 -11 11 -8 -11 -9
-9 -3 10 9 33 23 42 56 36 26 -5 28 -3 34 44 8 61 94 186 148 215 44 24 66 69
76 154 5 46 21 93 50 153 25 54 39 95 36 106 -8 23 15 45 36 37 23 -9 33 12
61 132 27 114 101 282 109 245 2 -9 8 28 12 83 4 55 9 111 12 125 4 22 3 22
-10 -5 -9 -16 -15 -44 -16 -61 0 -27 -43 -150 -57 -164 -3 -3 -2 21 2 53 5 39
4 57 -4 57 -6 0 -11 -6 -11 -12 -1 -7 -7 -26 -15 -43 l-15 -30 4 47 c4 51 -7
57 -19 11 -3 -16 -20 -43 -37 -60 -29 -30 -30 -35 -19 -60 10 -21 10 -54 -1
-157 l-12 -131 -48 -47 c-31 -32 -55 -48 -72 -48 -39 0 -122 -35 -160 -67 -18
-15 -47 -35 -64 -45 -17 -9 -40 -34 -51 -55 l-20 -38 4 35 4 35 -11 -37 c-10
-32 -16 -38 -39 -38 -21 0 -29 6 -32 23 -4 21 -4 20 -6 -3 0 -14 -11 -31 -23
-39 -20 -13 -24 -11 -48 20 -53 70 -66 80 -110 90 -35 8 -61 6 -115 -7 -103
-24 -115 -30 -131 -69 -8 -20 -21 -38 -29 -41 -8 -4 -12 -11 -8 -17 3 -5 1 -7
-4 -4 -17 10 -72 -13 -67 -27 3 -7 -12 -28 -33 -46 -21 -18 -46 -45 -56 -59
l-17 -26 -6 23 -6 22 -19 -21 c-11 -12 -19 -27 -19 -32 0 -6 -7 -2 -15 9 -13
18 -14 17 -15 -19 0 -21 6 -52 14 -71 16 -38 70 -102 99 -117 11 -6 -2 10 -28
35 -27 25 -45 49 -41 53 4 5 20 -6 34 -23 15 -17 34 -33 42 -36 8 -3 46 -30
85 -58 38 -29 64 -46 56 -37 -7 9 -54 47 -104 84 -81 61 -88 68 -66 73 19 5
28 0 41 -21 32 -53 61 -63 192 -69 67 -3 131 -11 143 -18 31 -17 92 -14 133 7
34 19 36 19 72 0 20 -10 46 -19 57 -19 29 0 32 -12 20 -72 -10 -43 -21 -61
-57 -96 -25 -23 -61 -46 -81 -51 -132 -31 -176 -39 -179 -30 -2 5 -8 9 -13 9
-4 0 -6 -6 -4 -12 3 -8 -16 -20 -52 -32 -32 -10 -62 -20 -68 -22 -5 -2 -21 19
-34 46 -13 27 -28 47 -34 43 -5 -3 -6 -31 -2 -67 6 -61 6 -63 -22 -75 -16 -7
-29 -9 -31 -3 -9 29 -66 105 -70 94 -4 -12 10 -79 23 -115 4 -10 -4 -18 -26
-26 -18 -6 -33 -11 -35 -11 -1 0 -19 33 -38 73 -34 69 -92 145 -103 134 -10
-10 34 -137 75 -219 2 -5 -14 -8 -35 -8 -38 0 -40 1 -63 58 -24 57 -118 164
-168 191 l-23 12 26 -51 c14 -28 46 -83 70 -121 25 -38 39 -69 32 -69 -21 1
-42 23 -66 70 -13 24 -32 56 -43 70 l-20 25 4 -38 4 -37 -39 37 c-55 54 -169
287 -196 402 -39 164 -66 477 -47 541 6 22 5 23 -6 8 -7 -9 -17 -23 -23 -32
-9 -13 -14 -12 -39 9 l-30 24 35 43 c20 24 68 89 108 145 46 66 116 144 194
219 l122 117 -61 -31 c-34 -17 -84 -44 -111 -60 -47 -28 -45 -25 46 67 53 53
108 110 122 127 55 67 148 106 133 56 -5 -15 -4 -15 9 0 8 10 28 21 46 24 25
5 31 3 31 -10 0 -10 5 -14 10 -11 6 3 10 1 10 -6 0 -7 9 -3 20 9 25 27 37 28
43 5 4 -17 5 -17 6 0 0 9 6 17 11 17 6 0 8 -18 5 -45 -5 -57 11 -50 26 11 8
31 16 44 29 44 16 0 17 -5 9 -42 -5 -24 -14 -53 -21 -65 -6 -12 -8 -31 -5 -42
4 -18 -4 -22 -77 -40 l-81 -19 50 -1 c28 -1 100 3 160 9 61 5 288 12 506 14
l396 5 76 -43 c105 -60 103 -36 -1 30 -2 1 6 16 18 32 61 82 -48 152 -238 152
-70 0 -83 -2 -322 -44 -90 -16 -202 -28 -295 -32 -146 -5 -149 -5 -129 13 11
10 25 30 32 45 6 15 20 32 32 38 17 9 20 8 20 -7 0 -15 4 -14 20 7 10 14 22
22 25 18 4 -3 34 9 67 28 34 19 82 39 107 45 25 5 70 17 99 26 43 13 52 20 52
39 0 28 -15 30 -82 9 -50 -15 -63 -9 -28 12 28 18 146 18 214 -1 93 -25 225
-39 304 -32 78 6 192 40 273 81 l49 25 48 -24 c26 -13 61 -27 78 -30 17 -4 42
-18 54 -32 13 -13 35 -24 48 -24 l25 0 -19 -22 c-11 -13 -33 -41 -49 -63 -24
-33 -25 -37 -6 -20 20 17 90 110 83 110 -1 0 3 14 10 32 7 20 23 37 41 44 48
20 110 91 132 150 22 61 24 143 5 191 -21 51 -116 211 -143 239 -13 13 -31 44
-40 69 -9 25 -30 65 -47 90 -16 24 -27 46 -25 48 2 2 78 10 168 18 256 21 393
75 533 211 90 86 100 103 114 184 19 112 -21 358 -66 403 -8 8 -39 75 -68 148
-73 179 -127 303 -186 423 -27 55 -73 152 -103 215 -29 64 -81 156 -114 205
-109 164 -226 384 -273 513 -22 61 -23 69 -11 155 14 110 45 237 71 289 10 21
16 38 14 38 -2 0 -19 -14 -38 -31z m-15 -2871 c17 -35 24 -56 16 -48 -16 15
-60 110 -52 110 3 0 19 -28 36 -62z m-764 -495 c-4 -3 -1 -13 5 -22 10 -13 10
-14 -1 -4 -8 6 -28 9 -47 6 -43 -7 -44 3 -1 16 40 12 52 13 44 4z m-252 -53
c-11 -5 -27 -9 -35 -9 -9 0 -8 4 5 9 11 5 27 9 35 9 9 0 8 -4 -5 -9z m320 -96
c-17 -7 -53 -15 -80 -18 l-50 -6 64 20 c35 10 66 21 69 24 2 3 10 2 16 -1 6
-4 -3 -12 -19 -19z m-224 -45 c-44 -11 -118 -10 -101 1 8 5 29 10 45 11 20 1
24 3 11 6 -13 4 -15 7 -7 12 7 5 27 1 45 -8 l33 -16 -26 -6z m72 14 c-7 -2
-19 -2 -25 0 -7 3 -2 5 12 5 14 0 19 -2 13 -5z m-1043 -174 c0 -14 -5 -19 -14
-16 -7 3 -20 0 -27 -6 -8 -7 -3 0 10 16 29 33 31 33 31 6z m-1283 -11 c-3 -8
-6 -5 -6 6 -1 11 2 17 5 13 3 -3 4 -12 1 -19z m1034 -117 c-12 -17 -36 -40
-54 -52 -26 -19 -23 -12 18 32 54 59 70 68 36 20z m-131 -110 c-10 -21 -30
-37 -30 -26 0 14 21 45 31 45 6 0 6 -7 -1 -19z m-643 -293 c-3 -7 -5 -2 -5 12
0 14 2 19 5 13 2 -7 2 -19 0 -25z m225 -30 c-7 -7 -12 -8 -12 -2 0 14 12 26
19 19 2 -3 -1 -11 -7 -17z m-113 -85 c0 -34 -3 -50 -7 -40 -7 17 -4 97 4 97 2
0 4 -26 3 -57z m2368 -143 c-1 -11 -7 -20 -14 -20 -16 0 -17 12 -1 28 16 16
17 15 15 -8z m-1151 -538 c-5 -5 -26 59 -25 77 0 9 7 -4 14 -29 8 -24 13 -46
11 -48z m745 -209 c-12 -20 -14 -14 -5 12 4 9 9 14 11 11 3 -2 0 -13 -6 -23z"/>
<path d="M15532 10550 c-18 -15 -51 -33 -74 -39 -44 -14 -103 -64 -93 -80 7
-13 35 -2 35 13 0 7 23 19 50 27 39 12 50 13 50 3 0 -21 18 -25 61 -14 53 14
113 69 99 90 -8 12 -13 13 -27 2 -79 -56 -129 -73 -79 -27 48 44 28 67 -22 25z"/>
<path d="M15668 10486 c-21 -24 -52 -47 -70 -52 -34 -10 -53 -38 -22 -32 15 2
18 -2 16 -22 -1 -14 -7 -26 -12 -28 -24 -8 -6 -33 51 -71 65 -44 113 -61 171
-61 46 0 68 8 68 26 0 10 -15 14 -57 14 -59 0 -134 28 -178 65 -20 17 -20 17
0 10 77 -25 218 -12 246 22 22 25 -3 33 -55 18 -27 -8 -65 -15 -84 -15 l-35 0
45 30 c49 32 65 57 49 73 -7 7 -22 -1 -46 -21 -40 -36 -73 -47 -106 -37 l-23
8 28 22 c27 22 66 73 66 88 0 15 -16 4 -52 -37z"/>
<path d="M15530 10301 c0 -54 162 -151 250 -151 45 0 38 26 -9 33 -59 8 -158
56 -191 93 -29 33 -50 43 -50 25z"/>
<path d="M5091 9924 c0 -11 3 -14 6 -6 3 7 2 16 -1 19 -3 4 -6 -2 -5 -13z"/>
<path d="M19341 9924 c0 -11 3 -14 6 -6 3 7 2 16 -1 19 -3 4 -6 -2 -5 -13z"/>
<path d="M9767 9655 c3 -77 7 -142 9 -144 8 -9 2 235 -6 259 -4 14 -6 -38 -3
-115z"/>
<path d="M9274 9766 c-3 -9 -16 -16 -29 -16 -30 0 -128 -52 -184 -97 -106 -88
-100 -225 12 -268 41 -16 49 -16 106 -1 46 12 68 13 82 5 17 -9 19 -7 14 13
-3 13 -2 102 4 198 9 169 8 201 -5 166z"/>
<path d="M19321 9714 c0 -11 3 -14 6 -6 3 7 2 16 -1 19 -3 4 -6 -2 -5 -13z"/>
<path d="M9370 9430 c0 -31 39 -186 79 -311 45 -144 81 -272 77 -276 -2 -2
-32 5 -67 16 -119 40 -218 18 -280 -60 -17 -22 -29 -39 -26 -39 2 0 31 12 63
27 53 25 72 28 189 31 l130 4 16 -54 15 -53 14 60 c7 33 13 103 13 155 0 150
-31 234 -157 425 -50 76 -66 94 -66 75z"/>
<path d="M8370 9387 c0 -2 19 -17 43 -31 23 -15 92 -80 154 -144 62 -64 115
-114 118 -110 11 11 -58 142 -99 186 -46 50 -111 86 -173 97 -24 4 -43 5 -43
2z"/>
<path d="M19261 9334 c0 -11 3 -14 6 -6 3 7 2 16 -1 19 -3 4 -6 -2 -5 -13z"/>
<path d="M9290 9325 c-13 -16 -6 -65 10 -65 6 0 10 -20 10 -44 0 -24 6 -48 13
-54 9 -8 11 0 9 38 -3 41 -1 50 17 60 23 12 28 49 9 68 -17 17 -53 15 -68 -3z"/>
<path d="M5201 9164 c0 -11 3 -14 6 -6 3 7 2 16 -1 19 -3 4 -6 -2 -5 -13z"/>
<path d="M19181 8934 c0 -11 3 -14 6 -6 3 7 2 16 -1 19 -3 4 -6 -2 -5 -13z"/>
<path d="M5341 8584 c0 -11 3 -14 6 -6 3 7 2 16 -1 19 -3 4 -6 -2 -5 -13z"/>
<path d="M19091 8584 c0 -11 3 -14 6 -6 3 7 2 16 -1 19 -3 4 -6 -2 -5 -13z"/>
<path d="M8676 8500 c15 -60 8 -200 -17 -315 -20 -93 -24 -139 -23 -290 0
-190 9 -289 25 -264 7 11 9 11 9 1 0 -7 4 -11 9 -7 9 5 -6 -45 -71 -240 -41
-123 -211 -538 -292 -715 -125 -273 -200 -392 -422 -672 -82 -103 -158 -202
-169 -220 -19 -32 339 300 421 391 98 109 208 278 289 446 203 417 300 758
414 1450 43 262 44 284 8 150 l-32 -120 -5 110 c-4 86 -7 104 -14 80 -9 -27
-11 -24 -30 51 -22 80 -60 159 -92 185 -15 12 -16 11 -8 -21z"/>
<path d="M5360 8511 c0 -6 4 -13 10 -16 6 -3 7 1 4 9 -7 18 -14 21 -14 7z"/>
<path d="M8940 8393 c0 -11 133 -64 210 -84 138 -35 258 -11 330 65 l24 27
-58 -27 c-34 -16 -83 -28 -120 -31 -66 -5 -266 19 -340 41 -25 8 -46 12 -46 9z"/>
<path d="M14060 8258 c0 -33 33 -137 57 -177 33 -56 99 -128 134 -146 52 -27
117 -35 234 -29 63 4 115 10 115 14 0 11 -74 30 -176 45 -53 8 -115 23 -139
34 -71 31 -140 104 -185 194 -22 43 -40 73 -40 65z"/>
<path d="M14888 8225 c-92 -23 -210 -73 -261 -111 -22 -16 -21 -16 13 -10 95
18 191 17 335 -4 83 -12 200 -25 261 -29 61 -4 116 -11 123 -15 14 -9 58 4 44
13 -6 3 -18 20 -27 38 -31 62 -101 99 -239 129 -92 19 -134 17 -249 -11z"/>
<path d="M5690 7631 c0 -6 4 -13 10 -16 6 -3 7 1 4 9 -7 18 -14 21 -14 7z"/>
<path d="M18716 7585 c-9 -26 -7 -32 5 -12 6 10 9 21 6 23 -2 3 -7 -2 -11 -11z"/>
<path d="M18676 7493 c-6 -14 -5 -15 5 -6 7 7 10 15 7 18 -3 3 -9 -2 -12 -12z"/>
<path d="M18641 7423 c-10 -26 -10 -27 4 -9 8 11 15 23 15 28 0 15 -7 8 -19
-19z"/>
<path d="M5830 7341 c0 -6 4 -13 10 -16 6 -3 7 1 4 9 -7 18 -14 21 -14 7z"/>
<path d="M18441 7043 c-10 -26 -10 -27 4 -9 8 11 15 23 15 28 0 15 -7 8 -19
-19z"/>
<path d="M6006 7017 c3 -10 9 -15 12 -12 3 3 0 11 -7 18 -10 9 -11 8 -5 -6z"/>
<path d="M15180 6986 c-15 -19 -9 -56 11 -69 23 -14 66 -1 72 22 11 45 -53 82
-83 47z"/>
<path d="M6080 6890 c6 -11 13 -20 16 -20 2 0 0 9 -6 20 -6 11 -13 20 -16 20
-2 0 0 -9 6 -20z"/>
<path d="M15222 6863 c-26 -38 -34 -53 -29 -53 2 0 16 18 31 40 29 45 28 56
-2 13z"/>
<path d="M6160 6760 c6 -11 13 -20 16 -20 2 0 0 9 -6 20 -6 11 -13 20 -16 20
-2 0 0 -9 6 -20z"/>
<path d="M18265 6754 c-9 -15 -12 -23 -6 -20 11 7 35 46 28 46 -3 0 -12 -12
-22 -26z"/>
<path d="M14990 6730 l-45 -7 40 -1 c22 -1 47 3 55 8 8 5 11 9 5 8 -5 0 -30
-4 -55 -8z"/>
<path d="M18180 6620 c-6 -11 -8 -20 -6 -20 3 0 10 9 16 20 6 11 8 20 6 20 -3
0 -10 -9 -16 -20z"/>
<path d="M18129 6543 c-13 -16 -12 -17 4 -4 9 7 17 15 17 17 0 8 -8 3 -21 -13z"/>
<path d="M6310 6533 c0 -6 8 -17 18 -24 16 -13 16 -13 2 6 -8 11 -16 22 -17
24 -2 2 -3 0 -3 -6z"/>
<path d="M13468 6482 c-146 -95 -194 -147 -273 -297 -61 -114 -52 -105 104
108 35 48 104 112 241 226 44 36 18 23 -72 -37z"/>
<path d="M18070 6460 c-6 -11 -8 -20 -6 -20 3 0 10 9 16 20 6 11 8 20 6 20 -3
0 -10 -9 -16 -20z"/>
<path d="M18039 6413 c-29 -35 -41 -53 -36 -53 2 0 17 16 31 35 28 36 31 49 5
18z"/>
<path d="M17983 6338 c-43 -57 -66 -91 -58 -86 12 7 78 98 72 98 -3 0 -9 -6
-14 -12z"/>
<path d="M6475 6300 c10 -11 20 -20 23 -20 3 0 -3 9 -13 20 -10 11 -20 20 -23
20 -3 0 3 -9 13 -20z"/>
<path d="M6535 6220 c10 -11 20 -20 23 -20 3 0 -3 9 -13 20 -10 11 -20 20 -23
20 -3 0 3 -9 13 -20z"/>
<path d="M17894 6218 l-19 -23 23 19 c21 18 27 26 19 26 -2 0 -12 -10 -23 -22z"/>
<path d="M6615 6120 c10 -11 20 -20 23 -20 3 0 -3 9 -13 20 -10 11 -20 20 -23
20 -3 0 3 -9 13 -20z"/>
<path d="M6640 6086 c0 -2 8 -10 18 -17 15 -13 16 -12 3 4 -13 16 -21 21 -21
13z"/>
<path d="M6680 6036 c0 -2 8 -10 18 -17 15 -13 16 -12 3 4 -13 16 -21 21 -21
13z"/>
<path d="M17710 5990 c-23 -27 -40 -50 -37 -50 3 0 24 23 47 50 23 28 40 50
37 50 -3 0 -24 -22 -47 -50z"/>
<path d="M6720 5987 c0 -2 15 -16 33 -33 l32 -29 -29 33 c-28 30 -36 37 -36
29z"/>
<path d="M6800 5895 c13 -14 26 -25 28 -25 3 0 -5 11 -18 25 -13 14 -26 25
-28 25 -3 0 5 -11 18 -25z"/>
<path d="M17619 5883 l-24 -28 28 24 c15 14 27 26 27 28 0 8 -8 1 -31 -24z"/>
<path d="M6865 5820 c10 -11 20 -20 23 -20 3 0 -3 9 -13 20 -10 11 -20 20 -23
20 -3 0 3 -9 13 -20z"/>
<path d="M17544 5798 l-29 -33 33 29 c30 28 37 36 29 36 -2 0 -16 -15 -33 -32z"/>
<path d="M13283 5799 c-18 -5 -33 -11 -33 -13 0 -3 32 -16 70 -31 39 -15 77
-34 85 -42 13 -13 8 -18 -46 -45 -33 -17 -59 -31 -57 -33 2 -1 30 1 62 6 l59
8 44 -46 c51 -52 66 -51 33 2 -12 20 -20 38 -17 41 15 15 102 -12 151 -46 l53
-37 -9 36 c-11 44 -70 116 -126 155 -70 48 -189 68 -269 45z"/>
<path d="M17430 5673 c-41 -42 -66 -70 -55 -62 22 16 141 139 134 139 -3 0
-38 -35 -79 -77z"/>
<path d="M6985 5690 c21 -22 41 -40 44 -40 3 0 -13 18 -34 40 -21 22 -41 40
-44 40 -3 0 13 -18 34 -40z"/>
<path d="M13381 5620 c0 -14 28 -72 29 -59 0 4 -7 22 -15 40 -8 19 -14 27 -14
19z"/>
<path d="M7087 5579 c7 -7 15 -10 18 -7 3 3 -2 9 -12 12 -14 6 -15 5 -6 -5z"/>
<path d="M17324 5558 l-29 -33 33 29 c30 28 37 36 29 36 -2 0 -16 -15 -33 -32z"/>
<path d="M7155 5512 c27 -29 51 -52 53 -52 8 0 -51 64 -76 83 -15 11 -5 -3 23
-31z"/>
<path d="M17250 5488 l-23 -33 31 29 c34 31 37 36 24 36 -5 0 -19 -15 -32 -32z"/>
<path d="M10300 5503 c1 -19 60 -77 69 -68 6 6 -5 22 -30 43 -21 18 -39 30
-39 25z"/>
<path d="M7240 5425 c7 -8 17 -15 22 -15 5 0 3 7 -6 15 -8 8 -18 15 -22 15 -3
0 -1 -7 6 -15z"/>
<path d="M17100 5345 c-24 -25 -42 -45 -39 -45 3 0 25 20 49 45 24 25 42 45
39 45 -3 0 -25 -20 -49 -45z"/>
<path d="M7340 5338 c41 -45 50 -53 50 -45 0 2 -21 23 -47 47 l-48 45 45 -47z"/>
<path d="M14661 5256 c-9 -11 -9 -25 -1 -55 6 -23 8 -46 4 -52 -4 -7 1 -10 12
-7 23 4 28 27 19 84 -7 46 -15 53 -34 30z"/>
<path d="M16974 5228 l-29 -33 33 29 c30 28 37 36 29 36 -2 0 -16 -15 -33 -32z"/>
<path d="M16894 5158 l-29 -33 35 30 c19 17 37 31 39 33 2 1 0 2 -5 2 -6 0
-23 -15 -40 -32z"/>
<path d="M7555 5140 c10 -11 20 -20 23 -20 3 0 -3 9 -13 20 -10 11 -20 20 -23
20 -3 0 3 -9 13 -20z"/>
<path d="M7605 5100 c10 -11 20 -20 23 -20 3 0 -3 9 -13 20 -10 11 -20 20 -23
20 -3 0 3 -9 13 -20z"/>
<path d="M16754 5038 l-19 -23 23 19 c21 18 27 26 19 26 -2 0 -12 -10 -23 -22z"/>
<path d="M7670 5046 c0 -2 8 -10 18 -17 15 -13 16 -12 3 4 -13 16 -21 21 -21
13z"/>
<path d="M7724 5001 c7 -11 46 -35 46 -28 0 3 -12 12 -26 22 -15 9 -23 12 -20
6z"/>
<path d="M16569 4893 c-13 -16 -12 -17 4 -4 16 13 21 21 13 21 -2 0 -10 -8
-17 -17z"/>
<path d="M7952 4824 c10 -10 20 -16 22 -13 3 3 -5 11 -17 18 -21 13 -21 12 -5
-5z"/>
<path d="M16422 4783 c-24 -24 -24 -25 -2 -8 42 33 44 35 37 35 -4 0 -19 -12
-35 -27z"/>
<path d="M8020 4777 c0 -2 15 -14 33 -27 20 -15 27 -17 18 -6 -13 16 -51 41
-51 33z"/>
<path d="M16354 4734 c-18 -14 -18 -15 4 -4 12 6 22 13 22 15 0 8 -5 6 -26
-11z"/>
<path d="M16269 4673 c-13 -16 -12 -17 4 -4 9 7 17 15 17 17 0 8 -8 3 -21 -13z"/>
<path d="M8231 4627 c2 -2 20 -14 39 -26 l35 -23 -30 26 c-16 14 -34 26 -39
26 -5 0 -7 -1 -5 -3z"/>
<path d="M16049 4529 c-23 -19 -23 -20 -2 -10 12 6 25 16 28 21 10 16 -1 12
-26 -11z"/>
<path d="M8420 4506 c0 -3 9 -10 20 -16 11 -6 20 -8 20 -6 0 3 -9 10 -20 16
-11 6 -20 8 -20 6z"/>
<path d="M15955 4470 c-3 -6 1 -7 9 -4 18 7 21 14 7 14 -6 0 -13 -4 -16 -10z"/>
<path d="M8500 4456 c0 -3 9 -10 20 -16 11 -6 20 -8 20 -6 0 3 -9 10 -20 16
-11 6 -20 8 -20 6z"/>
<path d="M15920 4450 c-9 -6 -10 -10 -3 -10 6 0 15 5 18 10 8 12 4 12 -15 0z"/>
<path d="M8550 4426 c0 -3 14 -12 30 -21 17 -9 30 -13 30 -11 0 3 -13 12 -30
21 -16 9 -30 13 -30 11z"/>
<path d="M8774 4296 c11 -9 24 -16 30 -16 12 0 7 5 -24 19 -24 11 -24 11 -6
-3z"/>
<path d="M8910 4226 c0 -3 9 -10 20 -16 11 -6 20 -8 20 -6 0 3 -9 10 -20 16
-11 6 -20 8 -20 6z"/>
<path d="M8990 4180 c8 -5 20 -10 25 -10 6 0 3 5 -5 10 -8 5 -19 10 -25 10 -5
0 -3 -5 5 -10z"/>
<path d="M15390 4160 c-8 -5 -10 -10 -5 -10 6 0 17 5 25 10 8 5 11 10 5 10 -5
0 -17 -5 -25 -10z"/>
<path d="M9050 4156 c0 -3 14 -12 30 -21 17 -9 30 -13 30 -11 0 3 -13 12 -30
21 -16 9 -30 13 -30 11z"/>
<path d="M9150 4100 c8 -5 20 -10 25 -10 6 0 3 5 -5 10 -8 5 -19 10 -25 10 -5
0 -3 -5 5 -10z"/>
<path d="M9350 4010 c8 -5 20 -10 25 -10 6 0 3 5 -5 10 -8 5 -19 10 -25 10 -5
0 -3 -5 5 -10z"/>
<path d="M15000 3980 c-9 -6 -10 -10 -3 -10 6 0 15 5 18 10 8 12 4 12 -15 0z"/>
<path d="M9620 3900 c8 -5 20 -10 25 -10 6 0 3 5 -5 10 -8 5 -19 10 -25 10 -5
0 -3 -5 5 -10z"/>
<path d="M14440 3770 c-8 -5 -10 -10 -5 -10 6 0 17 5 25 10 8 5 11 10 5 10 -5
0 -17 -5 -25 -10z"/>
<path d="M10838 3543 c7 -3 16 -2 19 1 4 3 -2 6 -13 5 -11 0 -14 -3 -6 -6z"/>
<path d="M11198 3483 c7 -3 16 -2 19 1 4 3 -2 6 -13 5 -11 0 -14 -3 -6 -6z"/>
</g>
</svg>
